<svg width="169" height="808" viewBox="0 0 169 808" fill="none" xmlns="http://www.w3.org/2000/svg">
<g clip-path="url(#clip0)">
<path d="M64.6423 392.933C64.6423 392.933 73.5706 136.497 2.15099 -13.2368C-22.0771 -64.046 -49.2659 -96.6775 -74.6315 -117.593C-127.506 -161.221 -196.235 -126.827 -200.297 -54.7275C-202.247 -20.1509 -197.237 23.5635 -177.626 76.6928C-119.824 233.249 64.6423 392.933 64.6423 392.933Z" fill="#2F8C91"/>
<path d="M-110.404 -10.335C-105.919 0.238671 -101.452 10.8063 -96.9672 21.38C-117.759 53.8415 -138.569 86.297 -159.365 118.779C-158.765 119.984 -158.165 121.189 -157.543 122.379C-136.805 90.0078 -116.066 57.6366 -95.3281 25.2653C-91.0988 35.2519 -86.8553 45.265 -82.6259 55.2515C-102.068 86.7167 -122.764 117.037 -144.657 146.101C-144.017 147.189 -143.398 148.291 -142.758 149.379C-120.955 120.502 -100.356 90.4092 -80.9726 59.1634C-76.9029 68.7694 -72.8333 78.3753 -68.7636 87.9813C-88.3468 116.724 -107.926 145.446 -127.51 174.189C-126.827 175.248 -126.144 176.307 -125.443 177.372C-106.014 148.859 -86.5638 120.332 -67.135 91.8195C-62.8631 101.886 -58.6126 111.967 -54.3407 122.033C-70.4966 150.878 -87.7077 178.842 -105.956 205.822C-105.226 206.832 -104.515 207.836 -103.781 208.825C-85.72 182.151 -68.6637 154.525 -52.6446 126.025C-48.2557 136.392 -43.8667 146.759 -39.4599 157.132C-54.2905 182.776 -70.105 207.564 -86.8672 231.398C-86.1303 232.366 -85.372 233.321 -84.6352 234.289C-68.0813 210.776 -52.4467 186.362 -37.7781 161.097C-34.2016 169.535 -30.6288 177.993 -27.0523 186.43C-39.6006 210.309 -53.108 233.405 -67.542 255.64C-66.7622 256.58 -66.0002 257.514 -65.2204 258.454C-51.0056 236.6 -37.7069 213.934 -25.3315 190.496C-20.9673 200.789 -16.6031 211.083 -12.239 221.376C-21.2137 243.146 -32.2248 263.483 -45.0892 282.102C-44.3021 283 -43.515 283.899 -42.7101 284.804C-30.133 266.632 -19.3309 246.832 -10.4081 225.675C-8.92856 229.179 -7.43119 232.69 -5.95168 236.195C-5.9752 236.861 -5.73788 237.551 -5.1782 238.024C-4.096 240.567 -3.03165 243.105 -1.94945 245.648C-8.69812 265.329 -18.4858 283.039 -30.8993 298.049C-30.0908 298.934 -29.3 299.812 -28.4914 300.696C-16.476 286.116 -6.86553 269.084 -0.0299797 250.194C3.23778 257.918 6.50916 265.621 9.77693 273.344C3.138 288.78 -4.48507 303.466 -13.0635 317.349C-12.2334 318.219 -11.4212 319.083 -10.5911 319.953C-2.30729 306.557 5.08894 292.402 11.5794 277.59C14.6237 284.759 17.6465 291.942 20.6908 299.112C14.8683 308.346 9.06721 317.566 3.24466 326.8C2.29275 328.324 1.30149 329.855 0.349585 331.379C1.1833 332.229 1.99915 333.072 2.81502 333.915C4.24106 331.64 5.69554 329.418 7.11431 327.184C12.1969 319.133 17.2616 311.075 22.3442 303.024C24.9201 309.098 27.4818 315.146 30.0578 321.221C26.1791 330.596 21.9617 339.747 17.3769 348.62C18.2285 349.476 19.0837 350.311 19.921 351.14C24.2145 342.841 28.2084 334.31 31.8814 325.56C34.883 332.65 37.8884 339.719 40.8722 346.802C38.2881 352.509 35.4902 358.034 32.4426 363.366C33.3157 364.207 34.1745 365.022 35.0155 365.83C37.7397 361.041 40.3035 356.088 42.664 351C44.4807 355.272 46.2795 359.538 48.0962 363.81C46.5881 367.188 45.0978 370.572 43.5934 373.929C44.4843 374.776 45.3467 375.57 46.1914 376.358C47.4224 373.582 48.6534 370.805 49.8808 368.049C52.5916 374.431 55.2845 380.806 57.9917 387.208C62.1547 390.954 64.4539 392.933 64.4539 392.933C64.4539 392.933 64.5708 389.821 64.6601 384.089C61.6443 376.973 58.6284 369.857 55.6125 362.741C58.598 364.694 61.6702 366.372 64.8002 367.83C64.797 366.568 64.7974 365.285 64.8051 363.962C60.7974 362.009 56.8802 359.651 53.1004 356.841C50.9892 351.881 48.8995 346.907 46.7883 341.948C52.6059 345.758 58.5899 348.95 64.7402 351.525C64.737 350.263 64.7159 348.994 64.7021 347.685C58.2272 344.912 51.9011 341.408 45.8309 337.208C45.4279 336.918 45.0385 336.873 44.6844 336.948C40.817 327.802 36.946 318.677 33.0787 309.531C43.351 315.229 53.7569 320.494 64.2713 325.361C64.2361 324.066 64.2044 322.751 64.1549 321.429C52.9268 316.21 41.8216 310.511 30.8753 304.345C27.391 296.134 23.9104 287.903 20.4261 279.692C34.6242 287.272 48.9701 294.445 63.4066 301.215C63.3571 299.893 63.2861 298.586 63.2224 297.238C48.1079 290.129 33.1091 282.581 18.2475 274.579C13.9755 264.513 9.70722 254.426 5.43527 244.36C24.0126 255.107 42.8677 265.035 61.9612 274.153C61.876 272.819 61.7908 271.486 61.7092 270.131C41.9235 260.647 22.3907 250.271 3.16079 239.041C0.343563 232.406 -2.47002 225.75 -5.28725 219.115C16.3728 226.999 38.0329 234.882 59.6929 242.766C59.5826 241.467 59.4723 240.169 59.3656 238.85C37.1914 230.769 15.0137 222.709 -7.17828 214.622C-12.6352 201.738 -18.0922 188.854 -23.5491 175.971C2.86344 191.106 29.8315 204.604 57.2338 216.402C57.0951 215.05 56.9527 213.719 56.8139 212.367C28.7729 200.221 1.19491 186.319 -25.7915 170.684C-30.798 158.889 -35.7865 147.1 -40.7893 135.284C-9.96695 147.226 20.8732 159.174 51.6956 171.116C51.4997 169.767 51.3216 168.423 51.122 167.094C19.8391 154.973 -11.4438 142.853 -42.7303 130.752C-44.6392 126.253 -46.548 121.754 -48.4391 117.261C-50.7631 111.794 -53.0657 106.313 -55.3898 100.846C-21.4661 113.128 12.4755 125.416 46.3992 137.697C46.1639 136.356 45.9322 134.994 45.6791 133.647C11.3626 121.231 -22.968 108.789 -57.2844 96.3734C-60.8609 87.9357 -64.4374 79.498 -68.0139 71.0603C-32.5708 79.7943 2.87222 88.5282 38.3189 97.2416C38.0228 95.9231 37.7267 94.6046 37.4127 93.28C1.87675 84.5361 -33.6556 75.7718 -69.1915 67.0279C-69.3915 66.9815 -69.5631 66.9882 -69.7347 66.9949C-74.8439 54.9256 -79.9568 42.8767 -85.066 30.8074C-46.8232 41.4742 -8.58407 52.1614 29.6587 62.8281C29.2733 61.4792 28.8916 60.1097 28.5062 58.7608C-9.95081 48.021 -48.4078 37.2813 -86.8684 26.562C-90.6968 17.5166 -94.5288 8.49175 -98.3572 -0.553614C-60.7706 5.06262 -23.1625 10.6644 14.4241 16.2807C13.9206 14.9567 13.4136 13.6532 12.8887 12.3437C-24.7551 6.72973 -62.4131 1.08915 -100.057 -4.52483C-104.123 -14.1513 -108.21 -23.7633 -112.276 -33.3898C-76.0508 -32.586 -39.7184 -29.3976 -3.44332 -23.8588C-4.14674 -25.2292 -4.83594 -26.573 -5.54662 -27.9024C-41.6541 -33.3188 -77.8153 -36.4054 -113.87 -37.1073C-120.49 -52.7141 -127.09 -68.3353 -133.71 -83.9422C-101.277 -83.3221 -68.7698 -80.8725 -36.2899 -76.671C-37.365 -78.0811 -38.4294 -79.4441 -39.5117 -80.8132C-71.2702 -84.8123 -103.048 -87.1005 -134.735 -87.6616C-134.925 -87.661 -135.1 -87.6338 -135.265 -87.5594C-138.057 -94.1209 -140.828 -100.697 -143.62 -107.258C-117.819 -108.095 -92.0219 -108.911 -66.2386 -109.753C-67.5715 -110.99 -68.9117 -112.186 -70.2376 -113.356C-95.2202 -112.545 -120.203 -111.734 -145.182 -110.943C-147.928 -117.445 -150.692 -123.954 -153.442 -130.435C-155.664 -129.432 -157.855 -128.287 -159.986 -127.057C-159.227 -125.254 -158.467 -123.452 -157.708 -121.649C-171.687 -102.084 -185.666 -82.52 -199.641 -62.976C-199.952 -60.6904 -200.177 -58.3538 -200.353 -55.9784C-185.598 -76.6049 -170.862 -97.2374 -156.104 -117.884C-153.653 -112.07 -151.179 -106.269 -148.728 -100.455C-165.986 -75.8547 -183.229 -51.2283 -200.487 -26.6285C-200.396 -24.7929 -200.273 -22.9247 -200.133 -21.0503C-182.466 -46.2498 -164.795 -71.4699 -147.11 -96.6633C-143.296 -87.6445 -139.478 -78.6463 -135.664 -69.6275C-155.7 -42.1701 -175.719 -14.7065 -195.756 12.7509C-195.464 14.3071 -195.172 15.8633 -194.849 17.4522C-174.586 -10.3195 -154.341 -38.0973 -134.081 -65.8485C-130.743 -57.9919 -127.425 -50.1209 -124.086 -42.2643C-123.994 -42.0372 -123.898 -41.8306 -123.806 -41.6034C-143.778 -10.9929 -165.185 18.215 -187.939 45.942C-187.557 47.3115 -187.158 48.687 -186.74 50.0686C-163.84 22.2612 -142.299 -7.05366 -122.181 -37.7447C-121.755 -36.7298 -121.33 -35.715 -120.9 -34.7207C-120.847 -34.4852 -120.755 -34.2581 -120.634 -34.0864C-117.845 -27.5044 -115.057 -20.9225 -112.271 -14.32C-131.455 20.4944 -152.137 54.0375 -174.229 86.2515C-173.701 87.5405 -173.193 88.844 -172.647 90.1391C-150.347 57.9305 -129.652 24.4141 -110.404 -10.335Z" fill="#286F7F"/>
<path d="M-10.252 363.559C-10.252 363.559 -114.362 495.887 -140.898 617.348C-149.901 658.574 -150.484 691.747 -147.31 717.582C-140.702 771.474 -96.5482 792.674 -66.5889 756.371C-52.2153 738.956 -37.3845 712.639 -25.4049 672.831C9.87754 555.588 -10.252 363.559 -10.252 363.559Z" fill="#BAE3DD"/>
<path d="M-89.5642 680.809C-87.4324 672.548 -85.3161 664.3 -83.1843 656.038C-61.202 650.631 -39.2079 645.227 -17.2256 639.82C-17.0211 638.831 -16.8282 637.837 -16.6354 636.843C-38.5634 642.235 -60.4914 647.627 -82.4077 653.023C-80.4017 645.219 -78.3803 637.402 -76.3743 629.598C-55.3803 623.951 -34.2821 619.621 -13.1337 616.68C-12.9872 615.725 -12.8408 614.769 -12.6982 613.831C-33.7263 616.743 -54.7162 620.985 -75.5901 626.548C-73.6641 619.05 -71.7226 611.54 -69.7965 604.042C-49.8125 599.929 -29.8168 595.821 -9.83273 591.709C-9.72136 590.739 -9.61379 589.787 -9.51411 588.813C-29.3507 592.89 -49.1872 596.967 -69.0238 601.044C-66.9909 593.175 -64.9735 585.32 -62.9407 577.451C-44.4404 571.308 -25.8217 566.245 -7.11538 562.285C-7.04665 561.336 -6.97413 560.37 -6.9054 559.421C-25.4061 563.312 -43.8271 568.285 -62.1259 574.319C-60.0437 566.226 -57.9577 558.116 -55.8639 550.027C-39.2084 544.828 -22.4502 540.663 -5.6319 537.554C-5.59034 536.613 -5.54497 535.655 -5.5034 534.715C-22.0927 537.764 -38.6299 541.847 -55.0567 546.93C-53.355 540.339 -51.6651 533.742 -49.9635 527.151C-35.016 521.578 -19.9583 517.005 -4.80981 513.407C-4.79161 512.457 -4.77341 511.507 -4.74352 510.562C-19.6321 514.075 -34.4533 518.553 -49.1411 523.984C-47.0703 515.943 -44.9995 507.902 -42.9287 499.861C-30.4073 493.369 -17.5374 488.816 -4.5053 486.241C-4.50257 485.304 -4.51154 484.362 -4.50882 483.425C-17.2422 485.911 -29.7982 490.306 -42.0646 496.504C-41.3604 493.761 -40.6601 491.034 -39.9442 488.295C-39.6779 487.95 -39.5019 487.437 -39.5788 486.863C-39.0687 484.887 -38.5548 482.894 -38.0447 480.918C-27.3274 474.259 -16.0354 470.416 -4.6186 469.532C-4.62757 468.59 -4.65199 467.661 -4.66095 466.719C-15.7357 467.607 -26.6911 471.188 -37.1272 477.376C-35.5741 471.346 -34.0248 465.332 -32.4717 459.301C-23.4719 454.855 -14.3191 451.389 -5.06012 448.884C-5.09245 447.933 -5.11689 447.003 -5.13752 446.057C-14.0823 448.461 -22.9094 451.774 -31.6152 455.979C-30.1686 450.375 -28.7221 444.772 -27.2909 439.181C-21.0894 437.591 -14.8723 435.989 -8.67068 434.399C-7.64618 434.127 -6.6138 433.877 -5.5893 433.606C-5.62542 432.672 -5.66154 431.738 -5.70145 430.822C-7.22272 431.216 -8.74809 431.572 -10.2539 431.954C-15.6754 433.345 -21.0853 434.74 -26.5068 436.131C-25.2887 431.394 -24.0707 426.657 -22.8526 421.92C-17.4503 419.115 -11.9878 416.671 -6.48085 414.544C-6.52486 413.589 -6.58434 412.646 -6.63594 411.724C-11.8056 413.702 -16.9115 415.968 -21.9847 418.547C-20.5533 413.012 -19.1374 407.49 -17.7059 401.955C-14.3257 400.379 -10.9091 399.043 -7.46418 397.924C-7.52367 396.981 -7.58316 396.038 -7.65023 395.129C-10.75 396.122 -13.8175 397.314 -16.857 398.668C-15.9967 395.329 -15.1364 391.99 -14.2761 388.651C-12.2915 387.707 -10.2951 386.768 -8.30668 385.806C-8.37406 384.841 -8.44901 383.911 -8.51608 383.003C-10.148 383.785 -11.7877 384.546 -13.4196 385.329C-12.1329 380.338 -10.8501 375.364 -9.56342 370.373C-9.98754 365.946 -10.2491 363.553 -10.2491 363.553C-10.2491 363.553 -11.5152 365.156 -13.7918 368.18C-15.227 373.732 -16.6505 379.289 -18.0895 384.858C-18.6602 382.081 -19.3818 379.413 -20.2118 376.834C-20.7017 377.504 -21.2072 378.187 -21.724 378.921C-20.6838 382.278 -19.8603 385.811 -19.2731 389.496C-20.2782 393.378 -21.2677 397.248 -22.2728 401.131C-23.3861 395.737 -24.8247 390.554 -26.5649 385.645C-27.047 386.337 -27.5407 387.024 -28.0499 387.724C-26.2381 392.943 -24.7743 398.474 -23.7056 404.244C-23.6374 404.627 -23.4806 404.896 -23.3009 405.06C-25.1356 412.2 -26.982 419.335 -28.8167 426.475C-31.1851 417.49 -33.7781 408.661 -36.5919 399.97C-37.0778 400.679 -37.5791 401.401 -38.0725 402.145C-35.0845 411.43 -32.3483 420.879 -29.8597 430.53C-31.5117 436.953 -33.1637 443.377 -34.8236 449.779C-38.224 437.516 -41.8335 425.396 -45.6404 413.424C-46.1338 414.167 -46.6118 414.899 -47.109 415.66C-43.1203 428.192 -39.36 440.896 -35.8398 453.769C-37.8726 461.638 -39.8938 469.511 -41.9229 477.362C-46.0339 460.879 -50.5981 444.667 -55.5804 428.74C-56.066 429.506 -56.5515 430.271 -57.0371 431.037C-51.8922 447.553 -47.2081 464.375 -43.0003 481.516C-44.3441 486.71 -45.6725 491.892 -47.0126 497.068C-53.6199 480.332 -60.231 463.613 -66.8383 446.877C-67.2966 447.635 -67.755 448.392 -68.2172 449.167C-61.4445 466.306 -54.6835 483.441 -47.907 500.563C-50.4955 510.614 -53.0878 520.683 -55.6763 530.735C-61.5653 507.376 -68.3646 484.578 -76.0154 462.419C-76.4814 463.212 -76.9394 464.026 -77.4092 464.835C-69.6117 487.539 -62.7083 510.904 -56.7383 534.876C-59.1175 544.091 -61.4851 553.31 -63.8605 562.507C-72.9797 538.306 -82.0988 514.105 -91.2296 489.9C-91.6681 490.741 -92.1028 491.564 -92.5413 492.404C-83.2842 516.96 -74.0155 541.52 -64.7585 566.075C-65.6684 569.582 -66.5666 573.094 -67.4765 576.601C-68.5805 580.876 -69.6845 585.151 -70.773 589.414C-81.158 563.231 -91.5352 537.071 -101.92 510.888C-102.339 511.755 -102.754 512.605 -103.173 513.472C-92.6739 539.943 -82.1746 566.415 -71.6674 592.908C-73.3691 599.5 -75.059 606.096 -76.7607 612.688C-89.2036 587.552 -101.655 562.394 -114.097 537.258C-114.481 538.139 -114.865 539.02 -115.237 539.905C-102.759 565.111 -90.2808 590.317 -77.8024 615.523C-77.7317 615.664 -77.6534 615.77 -77.5676 615.841C-79.9923 625.263 -82.4171 634.685 -84.8536 644.102C-97.7889 616.295 -110.728 588.505 -123.663 560.698C-124.024 561.644 -124.384 562.59 -124.732 563.541C-111.726 591.489 -98.7124 619.459 -85.7063 647.406C-87.522 654.46 -89.3378 661.513 -91.1573 668.584C-105.786 643.862 -120.407 619.162 -135.035 594.441C-135.329 595.432 -135.615 596.445 -135.898 597.441C-121.249 622.189 -106.601 646.937 -91.9645 671.681C-93.8943 679.196 -95.8358 686.706 -97.7657 694.221C-113.659 672.886 -128.669 650.191 -142.737 626.272C-142.961 627.404 -143.172 628.54 -143.38 629.659C-129.339 653.417 -114.365 675.929 -98.5195 697.133C-101.656 709.333 -104.8 721.511 -107.937 733.711C-122.197 714.653 -135.79 694.58 -148.685 673.583C-148.759 674.961 -148.814 676.309 -148.869 677.657C-136.226 698.124 -122.903 717.696 -108.949 736.296C-108.859 736.407 -108.773 736.478 -108.676 736.554C-109.993 741.684 -111.321 746.808 -112.638 751.938C-124.511 737.498 -136.368 723.046 -148.24 708.607C-148.123 710.042 -147.999 711.442 -147.852 712.851C-136.363 726.839 -124.874 740.827 -113.373 754.82C-114.678 759.897 -115.984 764.975 -117.301 770.048C-115.906 770.804 -114.488 771.457 -113.047 772.007C-112.686 770.592 -112.328 769.194 -111.954 767.783C-98.0549 765.363 -84.167 762.938 -70.2674 760.517C-69.2355 759.46 -68.2156 758.343 -67.2231 757.176C-81.8759 759.731 -96.5403 762.282 -111.193 764.837C-110.021 760.308 -108.856 755.756 -107.683 751.227C-90.3528 747.982 -73.0222 744.737 -55.6838 741.514C-55.0093 740.467 -54.3311 739.402 -53.6608 738.315C-71.4145 741.637 -89.1682 744.958 -106.918 748.263C-105.106 741.227 -103.294 734.191 -101.482 727.155C-81.7963 723.994 -62.1064 720.817 -42.4204 717.656C-41.9478 716.66 -41.4713 715.647 -40.9911 714.616C-60.9023 717.819 -80.8135 721.023 -100.725 724.226C-99.1489 718.091 -97.5575 711.944 -95.9817 705.809C-95.9438 705.636 -95.8941 705.468 -95.8445 705.3C-74.9553 700.419 -53.9643 697.097 -32.9532 695.36C-32.5892 694.396 -32.2369 693.428 -31.8729 692.464C-52.9775 694.164 -74.0736 697.445 -95.0601 702.307C-94.8622 701.521 -94.6489 700.724 -94.4511 699.938C-94.3781 699.779 -94.3401 699.607 -94.3294 699.442C-93.0086 694.295 -91.6761 689.153 -90.3553 684.007C-68.171 676.408 -45.8153 670.34 -23.3462 665.837C-23.0756 664.837 -22.8051 663.836 -22.5346 662.836C-45.0197 667.238 -67.3796 673.267 -89.5642 680.809Z" fill="#97C9CE"/>
<path d="M14.7703 429.075C15.0233 429.033 15.2755 428.961 15.5154 428.905C15.5531 428.888 15.5916 428.902 15.6293 428.885C15.8692 428.828 16.1091 428.772 16.3359 428.701C16.3613 428.7 16.3989 428.682 16.4243 428.681C16.6765 428.609 16.9164 428.553 17.1555 428.466C17.2063 428.463 17.2562 428.43 17.307 428.428C17.546 428.341 17.786 428.285 18.025 428.197C18.0627 428.18 18.1135 428.178 18.1511 428.161C18.3902 428.074 18.6292 427.987 18.8683 427.899L18.8806 427.883C19.1196 427.796 19.3709 427.693 19.5969 427.591C19.6345 427.574 19.6722 427.557 19.7098 427.54C19.9358 427.438 20.1617 427.335 20.3876 427.233C20.4253 427.216 20.4629 427.199 20.5129 427.166C20.7388 427.064 20.977 426.946 21.2029 426.843C21.2152 426.828 21.2283 426.842 21.2406 426.826C21.4665 426.724 21.6793 426.607 21.8921 426.49C21.9298 426.473 21.942 426.457 21.9797 426.44C22.1925 426.323 22.4053 426.206 22.6304 426.073C22.668 426.056 22.7057 426.039 22.7433 426.022C22.9561 425.904 23.1812 425.771 23.3809 425.639C23.3932 425.623 23.4186 425.622 23.4431 425.59C23.6559 425.473 23.8678 425.325 24.0675 425.193C24.0798 425.177 24.0929 425.192 24.1052 425.176C24.3048 425.044 24.5168 424.896 24.7165 424.764C24.7541 424.747 24.7786 424.715 24.804 424.714C25.0037 424.582 25.1903 424.435 25.3899 424.303C25.4022 424.287 25.4399 424.27 25.4521 424.254C25.8506 423.959 26.236 423.649 26.6213 423.339C26.6336 423.323 26.6713 423.306 26.6835 423.29C26.8701 423.143 27.0435 422.981 27.2169 422.819C27.2292 422.803 27.2537 422.771 27.2791 422.77C27.6513 422.445 27.9851 422.106 28.3188 421.768C28.3311 421.752 28.3311 421.752 28.3433 421.736C28.5036 421.559 28.6648 421.413 28.8251 421.236C28.8373 421.22 28.8496 421.204 28.8619 421.188C29.0222 421.011 29.1702 420.85 29.3305 420.673C29.6257 420.321 29.9209 419.968 30.1907 419.617C30.203 419.601 30.2152 419.585 30.2152 419.585C30.3501 419.409 30.4719 419.218 30.5946 419.058L30.6068 419.042C30.8635 418.676 31.0825 418.326 31.3007 417.946L31.313 417.93C31.4225 417.755 31.5189 417.565 31.603 417.392L31.6153 417.376C31.8922 416.823 32.1314 416.287 32.319 415.722L32.3313 415.706C32.5066 415.157 32.6443 414.625 32.7312 414.096L32.7434 414.08C32.7768 413.908 32.7847 413.737 32.8049 413.551C32.8331 413.194 32.8368 412.869 32.8141 412.514C32.7967 412.344 32.7924 412.19 32.7496 412.021C32.7496 412.021 32.7496 412.021 32.7364 412.006C32.395 409.792 30.8566 407.952 27.8145 406.887C13.8998 401.985 -1.11828 414.475 -6.39286 419.49C-5.49319 416.203 -4.64431 412.918 -3.82169 409.604C-3.26216 407.337 -2.72803 405.071 -2.19389 402.805L-1.45625 399.633C0.469913 391.229 2.31903 382.796 4.33535 374.434C4.42637 374.508 4.51741 374.581 4.59617 374.671C4.84385 374.893 5.07841 375.1 5.3261 375.321C5.46963 375.455 5.6123 375.557 5.75584 375.69C5.97727 375.882 6.19784 376.044 6.41927 376.236C6.57507 376.353 6.73087 376.47 6.88666 376.588C7.10724 376.749 7.31554 376.926 7.52298 377.072C7.67879 377.189 7.83458 377.307 8.00264 377.408C8.21008 377.554 8.43066 377.715 8.65036 377.845C8.80615 377.963 8.96109 378.049 9.12916 378.151C9.34886 378.281 9.55631 378.427 9.77602 378.557C9.93095 378.644 10.099 378.745 10.2417 378.847C10.4614 378.977 10.6811 379.108 10.9131 379.222C11.068 379.308 11.2229 379.395 11.3647 379.466C11.5967 379.58 11.8287 379.695 12.0738 379.824C12.2156 379.895 12.3574 379.967 12.4992 380.038C12.7697 380.166 13.0271 380.279 13.2976 380.408C13.4131 380.449 13.5164 380.507 13.6197 380.564C13.9926 380.719 14.3655 380.874 14.7507 381.013C14.7761 381.012 14.8023 381.042 14.8277 381.041C15.1744 381.166 15.5211 381.29 15.8677 381.415C15.9833 381.457 16.1111 381.483 16.2267 381.524C16.4832 381.607 16.7396 381.689 16.983 381.756C17.124 381.797 17.2649 381.837 17.4059 381.878C17.6361 381.93 17.8672 382.014 18.0975 382.066C18.2384 382.106 18.3916 382.131 18.5448 382.156C18.7751 382.208 18.9922 382.246 19.2224 382.298C19.3756 382.323 19.5289 382.347 19.6698 382.388C19.8869 382.425 20.104 382.463 20.3212 382.5C20.4744 382.525 20.6276 382.549 20.7808 382.574C20.9979 382.611 21.2273 382.633 21.4313 382.655C21.5845 382.68 21.7246 382.69 21.8778 382.714C22.1072 382.736 22.3234 382.742 22.5528 382.764C22.6929 382.773 22.833 382.783 22.973 382.793C23.2024 382.814 23.4441 382.82 23.6857 382.825C23.8127 382.82 23.9274 382.831 24.0675 382.84C24.3345 382.845 24.6138 382.833 24.8808 382.838C24.957 382.834 25.0463 382.846 25.1348 382.827C25.4902 382.812 25.8457 382.798 26.2012 382.783C26.252 382.781 26.2896 382.764 26.3281 382.778C26.6328 382.765 26.9367 382.722 27.2414 382.709C27.3552 382.689 27.469 382.669 27.5837 382.679C27.8245 382.654 28.0399 382.629 28.2675 382.589C28.4068 382.568 28.5206 382.548 28.6598 382.526C28.8752 382.502 29.0775 382.463 29.2797 382.423C29.419 382.402 29.5582 382.381 29.6843 382.345C29.8865 382.305 30.0888 382.266 30.2657 382.228C30.4049 382.207 30.5432 382.155 30.6825 382.133C30.8716 382.079 31.0616 382.056 31.2507 382.001C31.39 381.98 31.5283 381.928 31.6675 381.907C31.8567 381.853 32.0458 381.798 32.2227 381.76C32.3488 381.724 32.5003 381.687 32.6264 381.651C32.8155 381.596 32.9915 381.527 33.1807 381.473C33.3068 381.437 33.4451 381.385 33.5712 381.348C33.7603 381.294 33.9486 381.209 34.1378 381.155C34.2507 381.104 34.3768 381.067 34.4898 381.016C34.7034 380.93 34.9048 380.86 35.1185 380.774C35.2192 380.739 35.2945 380.705 35.3952 380.669C35.6842 380.549 35.9732 380.429 36.2613 380.278C36.3489 380.228 36.4496 380.193 36.5372 380.142C36.7254 380.057 36.926 379.956 37.1142 379.871C37.2395 379.804 37.3524 379.753 37.4777 379.686C37.6406 379.602 37.7912 379.534 37.9409 379.434C38.0662 379.367 38.1914 379.3 38.3166 379.233C38.4541 379.15 38.5916 379.067 38.7422 378.999C38.8675 378.932 38.9918 378.834 39.1171 378.767C39.2546 378.684 39.3798 378.617 39.5042 378.519C39.6294 378.452 39.7538 378.354 39.879 378.287C39.9911 378.205 40.1286 378.122 40.2407 378.04C40.3651 377.942 40.4903 377.874 40.6147 377.776C40.7268 377.694 40.8389 377.612 40.9632 377.514C41.0876 377.416 41.1997 377.334 41.3241 377.236C41.4362 377.154 41.5351 377.058 41.6472 376.976C41.7716 376.878 41.8837 376.796 41.995 376.683C42.0939 376.586 42.1938 376.52 42.2805 376.439C42.4048 376.341 42.5161 376.228 42.6282 376.146C42.7149 376.065 42.7894 376 42.8761 375.919C43.3096 375.514 43.7301 375.094 44.112 374.661C44.1733 374.581 44.2355 374.532 44.2968 374.452C44.408 374.339 44.5062 374.211 44.6043 374.083C44.6656 374.003 44.7269 373.924 44.8013 373.859C44.8995 373.731 44.9853 373.619 45.0834 373.491C45.1448 373.411 45.2061 373.331 45.2674 373.251C45.3532 373.139 45.4514 373.011 45.5241 372.885C45.5854 372.805 45.6345 372.741 45.6826 372.646C45.7554 372.519 45.8412 372.407 45.9139 372.281C45.963 372.217 46.0112 372.122 46.0471 372.043C46.1198 371.916 46.1926 371.789 46.2653 371.663C46.3012 371.584 46.3503 371.52 46.3862 371.441C46.4589 371.314 46.5185 371.172 46.5912 371.046C46.6272 370.967 46.6508 370.904 46.6868 370.825C46.7464 370.683 46.8191 370.556 46.8787 370.415C46.9024 370.352 46.9138 370.305 46.9374 370.242C46.997 370.1 47.0566 369.959 47.1031 369.802L47.1153 369.786C47.3161 369.236 47.4406 368.689 47.5144 368.145C47.5135 368.114 47.5249 368.067 47.5363 368.02C47.5574 367.864 47.5662 367.725 47.575 367.585C47.5733 367.523 47.5847 367.476 47.5952 367.399C47.6041 367.259 47.6006 367.135 47.6094 366.996C47.6077 366.934 47.606 366.872 47.6165 366.794C47.6131 366.671 47.6096 366.547 47.593 366.408C47.5913 366.346 47.5764 366.27 47.5747 366.208C47.5713 366.084 47.5424 365.962 47.5258 365.823C47.511 365.746 47.5093 365.684 47.4822 365.624C47.4533 365.501 47.4245 365.378 47.3956 365.256C47.3808 365.179 47.3537 365.118 47.3397 365.073C47.3108 364.95 47.2566 364.828 47.2278 364.706C47.2006 364.645 47.1735 364.584 47.1595 364.538C47.1053 364.417 47.0633 364.279 47.0091 364.158C46.9951 364.112 46.9557 364.067 46.9417 364.021C46.3224 362.778 45.2862 361.629 43.7351 360.703C31.1287 353.039 11.0616 367.239 4.99041 371.946C6.41903 366.208 7.95007 360.497 9.67372 354.855L9.74386 354.635C9.80259 354.463 9.84906 354.306 9.89466 354.118C9.89466 354.118 9.89466 354.118 9.90693 354.102L10.9353 350.872C13.2426 343.829 15.9123 337.018 18.9444 330.44C19.6166 330.845 20.5086 331.381 21.6054 331.97C21.7218 332.043 21.8374 332.084 21.9538 332.157C22.4309 332.4 22.9473 332.688 23.4883 332.944C23.6301 333.016 23.7588 333.073 23.9006 333.144C24.2096 333.286 24.5317 333.443 24.8539 333.6C25.0858 333.714 25.3178 333.828 25.562 333.926C25.7424 334.012 25.9227 334.097 26.1284 334.182C26.7464 334.465 27.4021 334.732 28.0832 334.998C28.4176 335.139 28.7642 335.264 29.1109 335.389C33.4398 337.02 38.5734 338.34 43.7698 338.264C44.0237 338.254 44.2653 338.259 44.5192 338.249C44.5954 338.245 44.6716 338.242 44.7477 338.239C44.9378 338.216 45.1286 338.223 45.3186 338.2C45.3948 338.197 45.4456 338.195 45.5218 338.192C45.7625 338.166 46.0164 338.156 46.2572 338.13C46.308 338.128 46.3334 338.127 46.3842 338.125C46.5873 338.117 46.7896 338.077 46.9796 338.054C47.0558 338.051 47.1188 338.033 47.195 338.03C47.385 338.006 47.575 337.983 47.7518 337.945C47.8026 337.943 47.8534 337.94 47.8911 337.923C48.1187 337.883 48.3464 337.843 48.574 337.802C48.6248 337.8 48.6879 337.782 48.7255 337.765C48.9024 337.727 49.0793 337.689 49.2562 337.65C49.3192 337.632 49.3822 337.614 49.4453 337.596C49.6476 337.557 49.8498 337.517 50.039 337.463C50.0644 337.462 50.0766 337.446 50.0897 337.461C50.3043 337.406 50.5188 337.351 50.7333 337.295C50.7964 337.277 50.834 337.26 50.8848 337.258C51.0486 337.205 51.2123 337.152 51.3638 337.114C51.4146 337.112 51.4645 337.079 51.5153 337.077C51.7167 337.007 51.9181 336.937 52.1195 336.867C52.1195 336.867 52.1318 336.851 52.1449 336.865C52.334 336.811 52.5223 336.726 52.6983 336.657C52.736 336.64 52.799 336.622 52.8367 336.605C52.9873 336.537 53.151 336.483 53.3017 336.415C53.3393 336.398 53.3647 336.397 53.4024 336.38C53.5906 336.295 53.7667 336.226 53.9418 336.126C53.9672 336.125 53.9795 336.109 53.9917 336.093C54.1424 336.025 54.3052 335.94 54.4427 335.857C54.4804 335.84 54.518 335.823 54.5557 335.806C54.7186 335.722 54.8815 335.638 55.0312 335.539L55.0435 335.523C55.2064 335.439 55.3684 335.324 55.5181 335.225C55.5304 335.209 55.5558 335.208 55.5803 335.176C55.7178 335.093 55.8422 334.995 55.9797 334.912C55.992 334.896 56.0296 334.879 56.0419 334.863C56.3283 334.65 56.6024 334.453 56.8503 334.226C56.8625 334.21 56.8748 334.194 56.9002 334.193C57.0114 334.08 57.1235 333.998 57.2348 333.885C57.247 333.869 57.247 333.869 57.2593 333.853C57.494 333.611 57.7034 333.37 57.8874 333.131C57.8996 333.115 57.9119 333.099 57.9241 333.083C58.1204 332.827 58.2789 332.588 58.4367 332.319C58.5094 332.192 58.569 332.05 58.6294 331.939C58.6417 331.923 58.6417 331.923 58.654 331.908C58.774 331.655 58.8678 331.373 58.9362 331.091L58.9485 331.075C58.9827 330.935 59.0046 330.81 59.0388 330.669C59.0388 330.669 59.0511 330.653 59.038 330.638C59.081 330.358 59.0986 330.079 59.1031 329.784L59.1022 329.754C59.0244 327.42 57.1868 324.881 53.001 322.455C43.0414 316.723 26.3582 324.655 20.0731 328.072C22.8956 322.184 25.9781 316.501 29.3722 311.053L31.3811 307.89C32.0513 306.857 32.7347 305.838 33.418 304.819C36.1899 300.759 39.1193 296.877 42.1931 293.16C42.3752 293.307 42.5826 293.454 42.8163 293.63C42.9336 293.733 43.0631 293.821 43.1927 293.908C43.4526 294.114 43.738 294.319 44.0496 294.554C44.9844 295.258 46.1257 296.077 47.4877 297.057C47.9411 297.364 48.4085 297.716 48.9135 298.051C49.1726 298.226 49.4317 298.401 49.6785 298.592C52.2965 300.402 55.5203 302.512 59.3104 304.878C59.4916 304.994 59.6728 305.111 59.8531 305.196C59.9179 305.24 59.9695 305.268 60.0343 305.312C60.1507 305.385 60.2794 305.441 60.4089 305.529C60.4737 305.573 60.5507 305.6 60.6155 305.644C60.7319 305.717 60.8475 305.758 60.9639 305.831C61.0409 305.859 61.1188 305.917 61.1959 305.945C61.2991 306.003 61.4278 306.059 61.5311 306.117C61.6082 306.145 61.6861 306.203 61.7631 306.231C61.8664 306.289 61.9819 306.33 62.1106 306.387C62.1876 306.415 62.2778 306.457 62.3426 306.501C62.4581 306.543 62.5614 306.6 62.6901 306.657C62.7671 306.685 62.8442 306.712 62.909 306.756C63.0376 306.813 63.1532 306.854 63.2688 306.896C63.3458 306.924 63.3974 306.953 63.4745 306.98C63.6285 307.036 63.7826 307.091 63.9367 307.147C63.9752 307.161 64.0137 307.175 64.0522 307.189C64.2448 307.258 64.4374 307.327 64.63 307.397C64.6816 307.426 64.7456 307.438 64.7963 307.436C64.9373 307.477 65.0782 307.518 65.2069 307.574C65.2839 307.602 65.3479 307.615 65.4249 307.642C65.5405 307.684 65.6683 307.71 65.7838 307.751C65.8609 307.779 65.9502 307.791 66.0272 307.819C66.1427 307.86 66.2574 307.871 66.3599 307.898C66.4369 307.926 66.5262 307.937 66.6155 307.949C66.7179 307.976 66.8458 308.001 66.9482 308.028C67.0375 308.04 67.1145 308.068 67.2038 308.079C67.3062 308.106 67.4209 308.117 67.5365 308.159C67.6258 308.17 67.7028 308.198 67.7921 308.21C67.9068 308.221 68.0092 308.247 68.1371 308.273C68.2264 308.285 68.2903 308.298 68.3796 308.309C68.5074 308.335 68.6221 308.346 68.7499 308.371C68.8138 308.384 68.89 308.381 68.9539 308.394C69.1325 308.417 69.3365 308.44 69.5151 308.464C69.579 308.476 69.6298 308.474 69.6937 308.487C69.8215 308.513 69.9485 308.508 70.0763 308.533C70.1656 308.545 70.2418 308.542 70.3311 308.554C70.4457 308.564 70.5473 308.56 70.6497 308.587C70.739 308.599 70.8152 308.595 70.9168 308.591C71.0183 308.587 71.1076 308.599 71.2092 308.595C71.2985 308.606 71.3869 308.587 71.4762 308.599C71.5778 308.595 71.6671 308.607 71.7687 308.602C71.858 308.614 71.9464 308.595 72.0357 308.607C72.1373 308.603 72.2135 308.6 72.315 308.595C72.4166 308.591 72.4928 308.588 72.5943 308.584C72.6836 308.596 72.7721 308.576 72.8736 308.572C72.9752 308.568 73.0514 308.565 73.1529 308.561C73.2291 308.558 73.3307 308.553 73.4068 308.55C73.5084 308.546 73.5968 308.527 73.6861 308.539C73.7623 308.535 73.8507 308.516 73.9269 308.513C74.1169 308.49 74.32 308.481 74.5223 308.442C74.5854 308.424 74.6493 308.437 74.7123 308.419C74.8139 308.415 74.9146 308.379 75.0162 308.375C75.0923 308.372 75.1554 308.354 75.2315 308.351C75.32 308.332 75.4338 308.312 75.5222 308.292C75.5853 308.274 75.6615 308.271 75.7245 308.253C75.8129 308.234 75.9268 308.214 76.0152 308.195C76.0783 308.177 76.1544 308.173 76.2175 308.155C76.3059 308.136 76.4066 308.101 76.5082 308.097C76.5712 308.079 76.6343 308.061 76.6973 308.043C76.798 308.008 76.8865 307.988 76.9872 307.953C77.0502 307.935 77.1133 307.917 77.1763 307.899C77.277 307.864 77.3654 307.845 77.4662 307.81C77.5169 307.808 77.5669 307.775 77.6176 307.772C77.7183 307.737 77.819 307.702 77.9197 307.667C77.9451 307.666 77.9828 307.649 77.995 307.633C78.3725 307.494 78.749 307.323 79.1133 307.169C79.1387 307.168 79.151 307.152 79.1764 307.151C79.2893 307.1 79.3769 307.05 79.4767 306.984C79.5144 306.967 79.552 306.95 79.5897 306.933C79.6773 306.883 79.7771 306.817 79.8778 306.781C79.9155 306.764 79.9531 306.747 80.003 306.714C80.0906 306.664 80.1782 306.614 80.278 306.548C80.3157 306.531 80.3533 306.514 80.3901 306.466C80.4777 306.416 80.5653 306.366 80.652 306.285C80.6897 306.268 80.7142 306.236 80.7518 306.219C80.8394 306.169 80.9261 306.088 81.0137 306.038C81.0382 306.006 81.0636 306.005 81.0881 305.973C81.188 305.907 81.2747 305.826 81.3491 305.761C81.3614 305.745 81.3614 305.745 81.3737 305.729C81.7836 305.387 82.1549 305.032 82.4869 304.631C82.4992 304.615 82.5115 304.599 82.5115 304.599C82.585 304.503 82.6464 304.423 82.72 304.327C82.7322 304.311 82.7567 304.279 82.769 304.263C82.8303 304.183 82.9039 304.088 82.9652 304.008C82.9898 303.976 83.002 303.96 83.0266 303.928C83.0879 303.848 83.1361 303.753 83.2097 303.657C83.2342 303.625 83.2465 303.609 83.2579 303.562C83.3061 303.467 83.3674 303.388 83.4278 303.277C83.4401 303.261 83.4646 303.229 83.4638 303.198C83.5119 303.103 83.5724 302.992 83.6206 302.897C83.6329 302.881 83.6329 302.881 83.6451 302.865C83.873 302.376 84.0623 301.873 84.2 301.341C84.2219 301.217 84.257 301.107 84.2789 300.982C84.2781 300.951 84.2903 300.935 84.2895 300.904C84.3114 300.78 84.3211 300.671 84.3561 300.561C84.3553 300.53 84.3667 300.483 84.3658 300.453C84.3755 300.344 84.3974 300.219 84.4071 300.11C84.4063 300.079 84.4177 300.033 84.4168 300.002C84.4265 299.893 84.4353 299.753 84.445 299.645C84.4441 299.614 84.4555 299.567 84.4546 299.536C84.4512 299.412 84.4609 299.304 84.4697 299.164C84.4688 299.133 84.4679 299.102 84.4671 299.071C84.4554 297.741 84.1732 296.282 83.5951 294.697C78.1483 279.882 52.7359 287.912 44.0308 291.15C49.0895 285.231 54.5166 279.76 60.264 274.834C60.2894 274.833 60.2894 274.833 60.3148 274.832L62.4623 272.995C65.879 270.176 69.4024 267.539 73.0203 265.099C73.0588 265.113 73.0973 265.127 73.1358 265.141C73.4054 265.238 73.6497 265.336 73.9062 265.418C73.9447 265.432 73.9701 265.431 74.0086 265.445C74.2651 265.527 74.5216 265.61 74.7904 265.676C74.8158 265.675 74.8543 265.689 74.8674 265.704C75.1362 265.77 75.4049 265.836 75.6737 265.902C75.7245 265.9 75.7761 265.929 75.8269 265.927C76.0825 265.978 76.3513 266.045 76.6192 266.08C76.67 266.078 76.7085 266.092 76.7593 266.09C77.0403 266.14 77.3082 266.175 77.6015 266.209L77.6269 266.208C77.8948 266.244 78.175 266.263 78.4551 266.282C78.5059 266.28 78.5444 266.294 78.5952 266.292C78.8754 266.312 79.1424 266.316 79.4095 266.32C79.4602 266.318 79.511 266.316 79.5749 266.329C79.842 266.333 80.1221 266.353 80.4014 266.341C80.44 266.355 80.4776 266.338 80.5284 266.336C80.7954 266.34 81.0747 266.329 81.3409 266.302C81.3663 266.301 81.3917 266.3 81.4171 266.299C81.6964 266.288 81.9879 266.26 82.2541 266.234C82.3049 266.232 82.3557 266.229 82.4065 266.227C82.6726 266.201 82.9511 266.158 83.2173 266.132C83.268 266.13 83.3188 266.128 83.3696 266.126C83.648 266.083 83.9265 266.041 84.2049 265.998C84.2303 265.997 84.2426 265.981 84.268 265.98C84.5464 265.938 84.8117 265.88 85.0902 265.838C85.1278 265.821 85.1786 265.819 85.204 265.818C85.4693 265.76 85.76 265.702 86.0253 265.644C86.0761 265.642 86.1392 265.624 86.1768 265.607C86.4544 265.534 86.7197 265.476 86.9973 265.403C87.0349 265.386 87.0857 265.384 87.1234 265.367C87.4009 265.293 87.6654 265.205 87.943 265.132C87.9552 265.116 87.9684 265.131 87.9806 265.115C88.2705 265.025 88.5349 264.937 88.8248 264.848C88.8624 264.831 88.9255 264.813 88.9631 264.796C89.2276 264.707 89.5043 264.603 89.7687 264.515C89.8186 264.482 89.8694 264.48 89.9193 264.446C90.1961 264.342 90.4728 264.238 90.7364 264.119C90.7618 264.118 90.7863 264.086 90.8117 264.085C91.0753 263.965 91.3397 263.877 91.6033 263.758C91.641 263.741 91.6786 263.724 91.704 263.723C91.9676 263.604 92.2312 263.484 92.4948 263.365C92.5447 263.332 92.5955 263.33 92.6454 263.297C92.909 263.178 93.1594 263.044 93.423 262.924C93.4607 262.907 93.5106 262.874 93.5482 262.857C93.8241 262.722 94.0746 262.588 94.3504 262.453C94.6131 262.303 94.889 262.167 95.1517 262.017C95.1894 262 95.2393 261.967 95.2769 261.95C95.5274 261.816 95.777 261.651 96.0275 261.517C96.0774 261.484 96.115 261.467 96.165 261.434C96.4145 261.269 96.665 261.134 96.9146 260.969C96.9523 260.952 96.9645 260.936 97.0022 260.919C97.2395 260.77 97.4891 260.605 97.7264 260.456C97.7387 260.44 97.7764 260.423 97.7886 260.407C98.0382 260.242 98.2756 260.093 98.512 259.913C98.5619 259.88 98.5996 259.863 98.6495 259.83C98.8737 259.666 99.1233 259.501 99.3475 259.337C99.3852 259.32 99.422 259.272 99.4596 259.255C99.6961 259.075 99.9326 258.895 100.169 258.715L100.181 258.699C100.418 258.519 100.654 258.339 100.865 258.16C100.903 258.143 100.928 258.111 100.965 258.094C101.176 257.915 101.4 257.751 101.624 257.556C101.674 257.523 101.698 257.491 101.748 257.458C101.959 257.279 102.183 257.084 102.394 256.905C102.418 256.873 102.444 256.872 102.468 256.84C102.679 256.661 102.877 256.467 103.088 256.288C103.1 256.272 103.113 256.256 103.138 256.255C103.336 256.062 103.547 255.883 103.745 255.689C103.77 255.657 103.82 255.624 103.844 255.592C104.042 255.398 104.228 255.22 104.426 255.026C104.45 254.994 104.488 254.977 104.525 254.929C104.723 254.735 104.907 254.526 105.105 254.333L105.118 254.317C105.302 254.108 105.488 253.93 105.673 253.721C105.698 253.689 105.71 253.673 105.734 253.641C105.907 253.448 106.079 253.256 106.252 253.063C106.277 253.031 106.301 252.999 106.338 252.951C106.51 252.758 106.67 252.55 106.83 252.373C106.855 252.341 106.867 252.325 106.891 252.293C107.051 252.086 107.223 251.893 107.358 251.686L107.37 251.67C107.529 251.462 107.676 251.271 107.81 251.064C107.835 251.032 107.859 251 107.872 250.984C108.019 250.792 108.153 250.586 108.275 250.395C108.299 250.363 108.312 250.347 108.336 250.315C108.47 250.108 108.604 249.902 108.726 249.711C108.738 249.695 108.738 249.695 108.75 249.679C108.872 249.488 109.006 249.281 109.115 249.076C109.127 249.06 109.139 249.044 109.152 249.028C109.273 248.837 109.382 248.631 109.479 248.442C109.503 248.41 109.502 248.379 109.527 248.347C109.623 248.157 109.732 247.952 109.828 247.762C109.84 247.746 109.84 247.715 109.864 247.683C110.056 247.273 110.223 246.894 110.378 246.501C110.39 246.485 110.389 246.454 110.401 246.438C110.472 246.25 110.543 246.061 110.602 245.888C110.614 245.872 110.613 245.842 110.638 245.81C110.709 245.621 110.755 245.433 110.8 245.246C110.8 245.246 110.812 245.23 110.799 245.215C110.845 245.027 110.891 244.84 110.924 244.668L110.923 244.637C110.956 244.466 110.99 244.294 111.01 244.107C111.009 244.077 111.021 244.061 111.02 244.03C110.909 243.663 110.93 243.507 110.938 243.337C110.937 243.306 110.937 243.306 110.936 243.275C110.952 242.934 110.954 242.578 110.933 242.254C110.932 242.223 110.932 242.223 110.931 242.192C110.914 242.022 110.897 241.884 110.867 241.73C110.866 241.699 110.853 241.685 110.852 241.654C110.823 241.5 110.793 241.347 110.738 241.194C110.738 241.194 110.725 241.179 110.724 241.148C110.682 241.011 110.627 240.858 110.572 240.706L110.559 240.691C110.504 240.538 110.436 240.402 110.369 240.265C110.356 240.251 110.355 240.22 110.342 240.205C110.274 240.068 110.195 239.948 110.102 239.812C110.089 239.797 110.076 239.782 110.063 239.767C109.996 239.662 109.903 239.526 109.798 239.407C108.628 238.016 106.556 237.096 103.371 236.826C84.7989 235.366 75.1031 254.568 72.1864 261.637C68.4556 264.127 64.8324 266.831 61.3159 269.715L59.3785 271.343C53.4315 276.401 47.7924 282.019 42.5349 288.102C45.9965 278.241 53.42 253.221 44.0735 243.039C41.5959 240.341 39.3715 239.427 37.4627 239.8C37.4504 239.816 37.4373 239.801 37.425 239.817C36.869 239.933 36.3287 240.156 35.8295 240.486L35.8173 240.502C35.3181 240.832 34.8346 241.27 34.3914 241.784L34.3791 241.8C33.9359 242.313 33.5083 242.934 33.1333 243.615C33.1211 243.631 33.1211 243.631 33.1088 243.647C33.0361 243.774 32.9511 243.917 32.8915 244.059C32.6023 244.628 32.3272 245.243 32.0528 245.888C32.0406 245.904 32.0292 245.951 32.0169 245.967C31.9573 246.109 31.9109 246.266 31.839 246.423C31.8267 246.439 31.8276 246.47 31.8153 246.486C31.6383 246.973 31.4743 247.475 31.3113 248.008C31.299 248.024 31.2999 248.055 31.2876 248.071C31.2411 248.228 31.1947 248.384 31.1482 248.541C31.1368 248.588 31.1131 248.651 31.1017 248.698C31.0553 248.854 31.0211 248.995 30.9877 249.167C30.9763 249.213 30.9649 249.26 30.9412 249.323C30.8158 249.839 30.6904 250.355 30.5904 250.87C30.5667 250.933 30.5684 250.994 30.557 251.041C30.5228 251.182 30.5018 251.338 30.4807 251.493C30.4701 251.571 30.4473 251.665 30.4368 251.743C30.4157 251.898 30.3815 252.039 30.3605 252.194C30.3376 252.288 30.3271 252.366 30.3174 252.475C30.2964 252.63 30.2621 252.771 30.2533 252.911C30.2428 252.989 30.2323 253.066 30.2217 253.144C30.1787 253.424 30.1357 253.705 30.1181 253.984C30.1084 254.093 30.0987 254.201 30.0759 254.295C30.0671 254.435 30.0452 254.56 30.0363 254.699C30.0267 254.808 30.0047 254.933 30.0082 255.056C29.9994 255.196 29.9774 255.321 29.9686 255.46C29.9467 255.585 29.9501 255.709 29.9413 255.848C29.9325 255.988 29.9228 256.097 29.914 256.236C29.8938 256.423 29.8858 256.593 29.8788 256.795C29.8577 256.95 29.862 257.105 29.8409 257.261C29.833 257.431 29.8242 257.571 29.8162 257.741C29.8065 257.85 29.81 257.974 29.8003 258.082C29.7915 258.222 29.7958 258.377 29.787 258.516C29.7904 258.64 29.7808 258.749 29.7842 258.872C29.7885 259.027 29.7806 259.197 29.7718 259.337C29.7621 259.446 29.7647 259.538 29.7681 259.662C29.7628 259.925 29.7697 260.173 29.7643 260.436C29.766 260.498 29.7678 260.56 29.7572 260.637C29.7501 260.839 29.7684 261.039 29.7614 261.241C29.7639 261.333 29.7674 261.457 29.77 261.55C29.7743 261.704 29.7795 261.89 29.7838 262.044C29.7864 262.137 29.7898 262.261 29.7924 262.354C29.7976 262.539 29.815 262.709 29.8202 262.894C29.8228 262.987 29.8254 263.079 29.828 263.172C29.848 263.434 29.868 263.697 29.8881 263.959C29.8889 263.99 29.9029 264.036 29.8915 264.083C29.9107 264.314 29.9298 264.545 29.949 264.777C29.9516 264.869 29.9664 264.946 29.9822 265.054C29.9996 265.223 30.0179 265.424 30.0354 265.593C30.0379 265.686 30.0537 265.793 30.0685 265.87C30.0991 266.055 30.1043 266.24 30.1348 266.425C30.1497 266.501 30.1523 266.594 30.1671 266.671C30.2003 266.948 30.2326 267.194 30.278 267.455C30.2788 267.486 30.292 267.501 30.2797 267.517C30.312 267.763 30.3566 267.994 30.3889 268.24C30.4037 268.317 30.4186 268.394 30.4343 268.501C30.4648 268.686 30.4954 268.87 30.5382 269.038C30.5662 269.13 30.5688 269.223 30.5968 269.315C30.6274 269.499 30.6702 269.667 30.7008 269.852C30.7156 269.929 30.7305 270.005 30.7453 270.082C30.803 270.327 30.8484 270.589 30.9192 270.849C30.9192 270.849 30.9324 270.864 30.9201 270.88C30.9778 271.125 31.0355 271.37 31.0932 271.615C31.108 271.692 31.1229 271.769 31.1631 271.844C31.2059 272.013 31.2619 272.196 31.3047 272.365C31.3327 272.456 31.3475 272.533 31.3755 272.625C31.4184 272.793 31.4743 272.977 31.5294 273.129C31.5443 273.206 31.5845 273.282 31.5994 273.358C31.6824 273.602 31.7524 273.832 31.8355 274.076C33.0545 277.677 34.1775 280.571 35.1825 282.881C35.4808 283.55 35.752 284.158 36.0223 284.735C36.2926 285.311 36.5489 285.842 36.8166 286.326C37.1928 287.054 37.5541 287.704 37.8875 288.263C37.9942 288.444 38.101 288.625 38.2077 288.807C38.6338 289.501 39.0048 290.043 39.3478 290.493C39.4275 290.613 39.5062 290.703 39.5981 290.807C39.7294 290.957 39.8484 291.122 39.9534 291.241C36.8559 295.021 33.8906 298.982 31.0819 303.09L28.9224 306.321C25.0106 312.347 21.4253 318.685 18.2032 325.287C19.0526 314.28 20.3414 282.582 7.34288 280.907C6.78169 280.838 6.27214 280.797 5.76345 280.787C5.6365 280.792 5.52181 280.782 5.39485 280.787L5.36946 280.788C5.24251 280.793 5.14094 280.797 5.02711 280.817L5.00172 280.819C4.90016 280.823 4.78633 280.843 4.68476 280.847L4.65937 280.848C4.48164 280.856 4.36781 280.876 4.26624 280.88L4.24085 280.881C4.13928 280.885 4.03859 280.92 3.93702 280.924C3.92476 280.94 3.91163 280.926 3.89937 280.941C3.81093 280.961 3.6971 280.981 3.60866 281C3.5964 281.016 3.58327 281.001 3.571 281.017C3.48257 281.036 3.38186 281.071 3.29343 281.09C3.28116 281.106 3.26804 281.091 3.25578 281.107C3.16734 281.127 3.0789 281.146 2.99132 281.196C2.97906 281.212 2.96593 281.197 2.95367 281.213C2.86523 281.232 2.78992 281.266 2.70234 281.316C2.69008 281.332 2.67695 281.317 2.66469 281.333C2.58938 281.367 2.50094 281.386 2.41337 281.436C2.40111 281.452 2.38798 281.437 2.37571 281.453C2.3004 281.487 2.22509 281.521 2.13752 281.571C2.12525 281.587 2.11213 281.573 2.09986 281.588C2.02455 281.623 1.94924 281.657 1.87479 281.722C1.86253 281.738 1.8494 281.723 1.83714 281.739C1.76183 281.773 1.69964 281.822 1.61207 281.872C1.59981 281.888 1.59981 281.888 1.57441 281.889C1.51223 281.938 1.43692 281.972 1.36247 282.037C1.35021 282.053 1.35021 282.053 1.32481 282.054C1.26263 282.103 1.20045 282.152 1.126 282.217C1.11374 282.233 1.11374 282.233 1.10147 282.249C1.03929 282.298 0.977102 282.347 0.902656 282.412C0.890393 282.428 0.890393 282.428 0.878127 282.444C0.815942 282.493 0.754622 282.573 0.692437 282.622C0.680175 282.638 0.68018 282.638 0.667913 282.654C0.605728 282.703 0.544408 282.782 0.495351 282.846L0.483084 282.862C0.434026 282.926 0.372711 283.006 0.310526 283.055L0.298259 283.071C0.249201 283.135 0.187881 283.215 0.138824 283.279L0.126562 283.295C0.0775037 283.359 0.0161838 283.439 -0.019747 283.518C-0.019747 283.518 -0.0197424 283.518 -0.0320091 283.534C-0.093329 283.613 -0.12926 283.692 -0.19058 283.772C-0.238773 283.867 -0.287831 283.931 -0.336023 284.026C-1.39801 286.05 -1.61107 288.891 -1.20093 292.201C-1.18435 292.34 -1.16777 292.478 -1.15119 292.617C-1.15119 292.617 -1.15119 292.617 -1.13807 292.632C-1.12149 292.77 -1.10491 292.909 -1.07607 293.031L-1.07521 293.062C-1.05863 293.201 -1.02978 293.324 -1.01321 293.462C-1.00008 293.477 -1.01235 293.493 -0.999219 293.508C-0.982642 293.647 -0.953798 293.769 -0.924094 293.923C-0.910967 293.938 -0.923229 293.954 -0.910102 293.969C-0.893525 294.107 -0.864686 294.23 -0.822716 294.367C-0.821851 294.398 -0.808724 294.413 -0.820986 294.429C-0.792142 294.552 -0.77557 294.69 -0.733599 294.828C-0.732734 294.859 -0.719612 294.874 -0.718747 294.905C-0.689903 295.027 -0.673326 295.166 -0.631355 295.303C-0.63049 295.334 -0.617368 295.349 -0.616503 295.38C-0.58766 295.503 -0.558816 295.625 -0.529112 295.779C-0.528247 295.81 -0.515125 295.825 -0.51426 295.856C-0.485416 295.978 -0.44345 296.116 -0.414606 296.238C-0.413742 296.269 -0.400619 296.284 -0.386627 296.33C-0.357783 296.453 -0.315817 296.59 -0.286973 296.713C-0.286108 296.744 -0.259859 296.773 -0.258994 296.804C-0.230151 296.927 -0.188184 297.064 -0.15934 297.187C-0.158476 297.218 -0.144489 297.264 -0.131362 297.279C-0.102518 297.401 -0.060552 297.539 -0.0317081 297.661C-0.0308431 297.692 -0.0168563 297.738 -0.00372922 297.753C0.0251146 297.876 0.067081 298.013 0.0959248 298.136C0.109917 298.182 0.110777 298.213 0.13703 298.243C0.165874 298.365 0.207845 298.503 0.236689 298.625C0.250681 298.671 0.251541 298.702 0.277795 298.732C0.306639 298.854 0.348604 298.992 0.402837 299.114C0.416825 299.159 0.41769 299.19 0.443943 299.22C0.485914 299.358 0.52702 299.464 0.568991 299.602C0.582978 299.648 0.583838 299.679 0.59783 299.724C0.639801 299.862 0.680907 299.969 0.722877 300.106C0.736865 300.152 0.750857 300.198 0.763984 300.213C0.805954 300.35 0.847055 300.457 0.889026 300.594C0.903013 300.64 0.91701 300.686 0.930136 300.701C0.972107 300.839 1.01321 300.945 1.05518 301.083C1.06917 301.129 1.08316 301.174 1.10941 301.204C1.15138 301.342 1.20562 301.463 1.23446 301.586C1.24845 301.632 1.26243 301.678 1.27643 301.724C1.3184 301.861 1.37263 301.983 1.4146 302.12C1.42859 302.166 1.44258 302.212 1.45571 302.227C1.49768 302.364 1.5519 302.486 1.59388 302.623C1.60786 302.669 1.62186 302.715 1.64811 302.745C1.70235 302.866 1.74431 303.004 1.79855 303.126C1.81253 303.171 1.83879 303.201 1.85278 303.247C1.90702 303.369 1.94899 303.506 2.00322 303.628C2.01721 303.674 2.0312 303.719 2.05745 303.749C2.11168 303.871 2.15366 304.008 2.20789 304.13C2.22188 304.176 2.24813 304.206 2.24899 304.237C2.30323 304.358 2.35833 304.511 2.41256 304.632C2.42654 304.678 2.4528 304.708 2.45366 304.739C2.5079 304.86 2.56299 305.013 2.61723 305.134C2.63121 305.18 2.64434 305.195 2.65833 305.241C2.72569 305.377 2.76766 305.515 2.83502 305.651C2.83588 305.682 2.86214 305.712 2.863 305.743C2.93036 305.88 2.98546 306.032 3.05282 306.168C3.06595 306.183 3.06681 306.214 3.09306 306.244C3.14816 306.397 3.21552 306.533 3.29601 306.685C3.30913 306.699 3.31 306.73 3.31 306.73C3.37822 306.898 3.44558 307.034 3.5138 307.202C4.04301 308.402 4.60987 309.586 5.20213 310.768C5.26948 310.905 5.34997 311.056 5.41733 311.193C5.44358 311.222 5.44445 311.253 5.4707 311.283C5.52494 311.405 5.60457 311.525 5.65879 311.647C5.67279 311.693 5.71217 311.737 5.72616 311.783C5.78039 311.905 5.84689 312.01 5.90112 312.132C5.92824 312.193 5.96762 312.238 5.98161 312.283C6.04811 312.389 6.10234 312.511 6.15571 312.601C6.18283 312.662 6.20994 312.723 6.24932 312.768C6.31582 312.873 6.35693 312.98 6.42343 313.085C6.45054 313.146 6.49079 313.222 6.5179 313.283C6.57127 313.373 6.62551 313.495 6.67887 313.585C6.71912 313.661 6.74625 313.722 6.78648 313.798C6.83986 313.888 6.89323 313.979 6.94746 314.1C6.9877 314.176 7.01482 314.237 7.05507 314.313C7.10844 314.403 7.16181 314.494 7.21518 314.584C7.25542 314.66 7.29567 314.736 7.32278 314.797C7.37616 314.887 7.42952 314.978 7.48288 315.069C7.52313 315.144 7.56338 315.22 7.60362 315.296C7.65699 315.386 7.71037 315.477 7.76373 315.568C7.80398 315.643 7.84422 315.719 7.88447 315.795C7.93784 315.885 7.99121 315.976 8.04458 316.067C8.08482 316.142 8.12506 316.218 8.17757 316.278C8.23094 316.368 8.28431 316.459 8.33769 316.55C8.37793 316.625 8.41818 316.701 8.47068 316.761C8.52406 316.851 8.5643 316.927 8.61767 317.018C8.65791 317.093 8.71128 317.184 8.76378 317.244C8.81716 317.334 8.8574 317.41 8.92304 317.485C8.96328 317.561 9.01665 317.651 9.06915 317.711C9.12253 317.802 9.16277 317.877 9.22841 317.952C9.26865 318.028 9.32202 318.118 9.37452 318.178C9.4279 318.269 9.46814 318.344 9.53378 318.419C9.57402 318.495 9.63967 318.569 9.6799 318.645C9.73327 318.736 9.78578 318.795 9.83915 318.886C9.87939 318.962 9.94504 319.036 9.98527 319.112C10.0255 319.188 10.0912 319.262 10.1314 319.338C10.1716 319.414 10.2373 319.489 10.2775 319.564C10.3178 319.64 10.3834 319.715 10.4236 319.79C10.4639 319.866 10.5295 319.941 10.5698 320.016C10.61 320.092 10.6756 320.167 10.7159 320.242C10.7561 320.318 10.8218 320.393 10.862 320.469C10.9022 320.544 10.9679 320.619 11.0081 320.695C11.0484 320.77 11.114 320.845 11.1542 320.921C11.1945 320.996 11.2601 321.071 11.3004 321.147C11.3406 321.222 11.4063 321.297 11.4465 321.373C11.4867 321.448 11.5524 321.523 11.5926 321.599C11.6451 321.659 11.6985 321.749 11.751 321.809C11.8035 321.869 11.8569 321.959 11.9094 322.019C11.9619 322.079 12.0153 322.169 12.0678 322.229C12.1203 322.289 12.1605 322.365 12.2262 322.439C12.2787 322.499 12.332 322.59 12.3845 322.649C12.4371 322.709 12.4773 322.785 12.5298 322.844C12.5823 322.904 12.6357 322.995 12.6882 323.055C12.7407 323.114 12.7809 323.19 12.8334 323.25C12.886 323.309 12.9393 323.4 12.9918 323.46C13.0443 323.519 13.0846 323.595 13.1371 323.655C13.1896 323.715 13.243 323.805 13.2955 323.865C13.348 323.925 13.3882 324 13.4407 324.06C13.4932 324.12 13.5466 324.211 13.5991 324.27C13.6516 324.33 13.7042 324.39 13.7444 324.465C13.7969 324.525 13.8625 324.6 13.9028 324.675C13.9553 324.735 14.0078 324.795 14.048 324.871C14.1005 324.93 14.1531 324.99 14.2064 325.081C14.2589 325.14 14.3114 325.2 14.3639 325.26C14.4165 325.32 14.4821 325.394 14.5346 325.454C14.5871 325.514 14.6396 325.573 14.679 325.618C14.7315 325.678 14.784 325.738 14.8496 325.812C14.9022 325.872 14.9547 325.932 14.994 325.977C15.0466 326.036 15.0991 326.096 15.1516 326.156C15.2041 326.215 15.2435 326.26 15.296 326.32C15.3485 326.38 15.401 326.439 15.4535 326.499C15.506 326.559 15.5454 326.604 15.5979 326.663C15.6504 326.723 15.7029 326.783 15.7554 326.843C15.8079 326.902 15.8473 326.947 15.8998 327.007C15.9523 327.067 16.0048 327.126 16.0573 327.186C16.0967 327.231 16.1492 327.291 16.1886 327.335C16.2411 327.395 16.2936 327.455 16.3592 327.529C16.3986 327.574 16.4511 327.634 16.4905 327.679C16.543 327.738 16.6087 327.813 16.6734 327.857C16.6865 327.872 16.7128 327.902 16.7259 327.917C14.4466 332.777 12.3748 337.783 10.5095 342.905C9.99063 344.35 9.47171 345.795 8.97905 347.27L8.07612 349.985C6.21584 355.741 4.57441 361.596 3.0494 367.524C2.58866 357.392 -0.382205 336.563 -16.3648 329.069C-19.4942 327.605 -21.7521 327.311 -23.2863 327.901C-23.2863 327.901 -23.2986 327.917 -23.3117 327.902C-23.45 327.954 -23.5753 328.021 -23.7005 328.088C-23.7005 328.088 -23.7128 328.104 -23.7259 328.089C-23.8511 328.156 -23.9632 328.238 -24.0885 328.305C-24.3249 328.485 -24.5229 328.679 -24.72 328.904C-24.8058 329.016 -24.8917 329.128 -24.9644 329.254L-24.9767 329.27C-25.0494 329.397 -25.1221 329.524 -25.1817 329.666C-25.1817 329.666 -25.1817 329.666 -25.194 329.682C-25.3981 330.108 -25.5375 330.578 -25.6376 331.093C-25.6376 331.093 -25.6498 331.109 -25.6367 331.124C-25.67 331.295 -25.6903 331.482 -25.7236 331.653C-25.7236 331.653 -25.7359 331.669 -25.7227 331.684C-25.7834 332.244 -25.8046 332.848 -25.7611 333.496L-25.7603 333.527C-25.7542 333.744 -25.7359 333.944 -25.7168 334.175L-25.7159 334.206C-25.6461 334.884 -25.537 335.607 -25.3762 336.359C-25.3631 336.374 -25.3753 336.39 -25.3622 336.404C-25.3045 336.65 -25.26 336.88 -25.1891 337.14C-25.176 337.155 -25.1752 337.186 -25.1752 337.186C-25.1175 337.431 -25.0467 337.691 -24.9759 337.951L-24.9627 337.966C-24.8211 338.487 -24.6532 339.037 -24.4854 339.587C-24.4722 339.602 -24.4714 339.633 -24.4714 339.633C-24.3874 339.908 -24.2912 340.167 -24.2073 340.442C-24.2064 340.473 -24.1933 340.488 -24.1793 340.534C-24.0831 340.793 -23.986 341.083 -23.8898 341.342C-23.8767 341.357 -23.8758 341.388 -23.8758 341.388C-23.6695 341.952 -23.4377 342.515 -23.205 343.108C-23.1919 343.123 -23.191 343.154 -23.1779 343.169C-23.0686 343.443 -22.9461 343.732 -22.8114 344.005C-22.7974 344.051 -22.7843 344.066 -22.7703 344.112C-22.6478 344.401 -22.5131 344.674 -22.3907 344.963C-22.3775 344.978 -22.3635 345.023 -22.3504 345.038C-22.0801 345.615 -21.7835 346.222 -21.487 346.829C-21.4739 346.843 -21.473 346.874 -21.4599 346.889C-21.312 347.177 -21.1642 347.465 -21.0163 347.753C-21.0023 347.799 -20.9761 347.829 -20.9621 347.875C-20.8142 348.162 -20.6664 348.45 -20.5063 348.722C-20.48 348.752 -20.466 348.798 -20.4398 348.828C-20.2788 349.131 -20.1187 349.403 -19.9577 349.705C-19.9446 349.72 -19.9315 349.735 -19.9306 349.766C-19.7696 350.069 -19.5964 350.356 -19.4231 350.643C-19.41 350.658 -19.3969 350.672 -19.396 350.703C-19.2228 350.99 -19.0496 351.277 -18.8763 351.564C-18.8501 351.594 -18.8229 351.655 -18.7967 351.684C-18.6235 351.971 -18.4502 352.258 -18.2647 352.529C-18.2253 352.574 -18.2113 352.62 -18.172 352.664C-17.9987 352.951 -17.8001 353.237 -17.6269 353.524C-17.6006 353.554 -17.5997 353.585 -17.5735 353.615C-17.3871 353.916 -17.2016 354.187 -17.003 354.473C-16.9899 354.488 -16.9767 354.503 -16.9636 354.518C-16.765 354.804 -16.5664 355.089 -16.3677 355.375C-16.3283 355.42 -16.3143 355.466 -16.275 355.511C-16.0895 355.781 -15.8908 356.067 -15.6931 356.322C-15.6537 356.367 -15.6266 356.428 -15.5872 356.472C-15.3886 356.758 -15.1908 357.013 -14.9922 357.299C-14.9659 357.329 -14.9265 357.374 -14.9125 357.419C-14.7016 357.689 -14.4899 357.99 -14.279 358.26L-14.2659 358.275C-14.055 358.544 -13.8309 358.829 -13.62 359.099C-13.5807 359.144 -13.5544 359.174 -13.515 359.218C-13.3041 359.488 -13.0933 359.758 -12.8832 359.997C-12.8438 360.042 -12.8045 360.087 -12.7651 360.131C-12.5542 360.401 -12.331 360.655 -12.121 360.894C-12.0816 360.939 -12.0554 360.969 -12.016 361.013C-11.7797 361.282 -11.5565 361.536 -11.3202 361.805C-11.3071 361.82 -11.3071 361.82 -11.294 361.835C-11.0708 362.088 -10.8345 362.357 -10.6114 362.611C-10.5851 362.641 -10.5458 362.686 -10.5195 362.716C-10.2963 362.969 -10.0609 363.207 -9.83776 363.461C-9.79838 363.506 -9.759 363.551 -9.71962 363.595C-9.4842 363.833 -9.27417 364.072 -9.03874 364.31C-8.99936 364.355 -8.95998 364.4 -8.90834 364.428C-8.67292 364.666 -8.43749 364.904 -8.18894 365.157C-8.17581 365.172 -8.14956 365.202 -8.13643 365.217C-7.90101 365.454 -7.65333 365.676 -7.4179 365.914C-7.39164 365.944 -7.3654 365.974 -7.32688 365.988C-7.07919 366.21 -6.84377 366.447 -6.6092 366.654C-6.56982 366.699 -6.51818 366.728 -6.4788 366.773C-6.24423 366.98 -5.99655 367.202 -5.762 367.409C-5.72262 367.453 -5.67096 367.482 -5.63158 367.527C-5.3839 367.749 -5.13707 367.94 -4.87712 368.146C-4.85086 368.176 -4.81236 368.189 -4.79923 368.204C-4.55241 368.395 -4.29245 368.601 -4.04562 368.792C-4.0325 368.807 -3.99399 368.821 -3.98086 368.836C-3.72091 369.042 -3.47408 369.233 -3.21499 369.408C-3.16335 369.436 -3.12397 369.481 -3.08545 369.495C-2.83862 369.686 -2.57954 369.861 -2.33357 370.021C-2.28193 370.05 -2.24256 370.095 -2.19091 370.124C-1.93183 370.299 -1.67273 370.473 -1.42676 370.634C-1.38825 370.647 -1.362 370.677 -1.32347 370.691C-1.06439 370.866 -0.793039 371.025 -0.53395 371.2C-0.520825 371.215 -0.507697 371.23 -0.495426 371.214C-0.224075 371.373 0.047267 371.532 0.305493 371.676C0.344008 371.69 0.39566 371.719 0.421913 371.749C0.680139 371.893 0.938362 372.037 1.1966 372.181C1.24824 372.21 1.29988 372.238 1.3384 372.252C1.48021 372.324 1.62201 372.395 1.77695 372.482C-0.389314 381.392 -2.36212 390.402 -4.42595 399.338L-5.4013 403.557C-6.57219 408.511 -7.79472 413.435 -9.12055 418.303C-12.7476 409.029 -24.8706 379.975 -34.035 378.141C-36.8339 377.592 -38.835 378.758 -40.0696 380.975C-40.0941 381.007 -40.0932 381.038 -40.1177 381.07C-40.3228 381.465 -40.5147 381.876 -40.6926 382.332C-40.704 382.379 -40.7163 382.394 -40.7277 382.441C-40.8802 382.896 -41.0319 383.382 -41.145 383.882C-41.1564 383.929 -41.1556 383.96 -41.167 384.007C-41.2231 384.272 -41.267 384.522 -41.3231 384.787C-41.3231 384.787 -41.3354 384.803 -41.3223 384.818C-41.3662 385.067 -41.3969 385.332 -41.4399 385.612C-41.4513 385.659 -41.4505 385.69 -41.4619 385.737C-41.4926 386.001 -41.5225 386.296 -41.5401 386.576C-41.5393 386.607 -41.5515 386.623 -41.5507 386.653C-41.5683 386.933 -41.5737 387.196 -41.5913 387.475C-41.5904 387.506 -41.6018 387.553 -41.5878 387.599C-41.5923 387.893 -41.5968 388.187 -41.5882 388.496C-41.5873 388.527 -41.5856 388.589 -41.5848 388.62C-41.577 388.898 -41.5692 389.177 -41.5483 389.47C-41.5475 389.501 -41.5466 389.531 -41.5326 389.577C-41.524 389.886 -41.49 390.195 -41.456 390.503C-41.4542 390.564 -41.4402 390.61 -41.4516 390.657C-41.4308 390.95 -41.3845 391.242 -41.3636 391.536C-41.3627 391.566 -41.3619 391.597 -41.361 391.628C-41.327 391.936 -41.2798 392.259 -41.2327 392.582C-41.231 392.644 -41.2038 392.705 -41.2021 392.767C-41.1427 393.074 -41.1087 393.382 -41.0362 393.704C-41.023 393.719 -41.0353 393.735 -41.0221 393.75C-40.9496 394.072 -40.8893 394.41 -40.8168 394.732C-40.8019 394.808 -40.788 394.854 -40.7731 394.931C-40.628 395.575 -40.4444 396.233 -40.2486 396.874C-40.2337 396.951 -40.2066 397.012 -40.1918 397.089C-40.0938 397.41 -39.9959 397.731 -39.8849 398.066C-39.8717 398.081 -39.8709 398.112 -39.8709 398.112C-39.7607 398.417 -39.6636 398.707 -39.5534 399.012C-39.5263 399.073 -39.4983 399.165 -39.4712 399.225C-39.3479 399.545 -39.2377 399.85 -39.1021 400.154C-39.0881 400.2 -39.0619 400.23 -39.0479 400.276C-38.9254 400.564 -38.8161 400.838 -38.6814 401.111C-38.6542 401.172 -38.614 401.248 -38.5869 401.309C-38.4513 401.613 -38.3035 401.9 -38.1547 402.219C-38.1276 402.28 -38.1014 402.31 -38.0743 402.371C-37.9395 402.644 -37.8057 402.886 -37.671 403.159C-37.6438 403.219 -37.6036 403.295 -37.5642 403.34C-37.4032 403.643 -37.2431 403.915 -37.0699 404.202C-37.0428 404.262 -36.9903 404.322 -36.9632 404.383C-36.8162 404.64 -36.6569 404.881 -36.4977 405.122C-36.4583 405.167 -36.4312 405.227 -36.3918 405.272C-36.2063 405.543 -36.0208 405.814 -35.8353 406.085C-35.7828 406.144 -35.7557 406.205 -35.7031 406.265C-35.5185 406.505 -35.3593 406.746 -35.1624 406.97C-35.1361 407 -35.0967 407.044 -35.0705 407.074C-34.8727 407.329 -34.6495 407.583 -34.4518 407.838C-34.3993 407.898 -34.3468 407.957 -34.2942 408.017C-34.0973 408.241 -33.8873 408.48 -33.6781 408.688C-33.665 408.703 -33.6388 408.733 -33.6256 408.748C-33.3902 408.986 -33.1679 409.208 -32.9325 409.446C-32.88 409.506 -32.8152 409.55 -32.7627 409.609C-32.515 409.831 -32.2796 410.069 -32.0328 410.26C-24.4559 416.693 -17.3625 419.464 -12.8548 420.67C-11.6257 420.991 -10.6032 421.196 -9.7986 421.333C-12.0547 429.303 -14.632 437.146 -17.7765 444.704L-17.8361 444.846C-17.8843 444.94 -17.9194 445.05 -17.9676 445.145L-19.0175 447.603C-19.0175 447.603 -19.0175 447.603 -19.0166 447.633C-19.1008 447.807 -19.1718 447.996 -19.2559 448.169L-19.2918 448.248C-20.0218 449.872 -20.7649 451.481 -21.5466 453.077C-30.9753 472.283 -43.9646 488.697 -59.3459 500.924C-60.8383 502.1 -59.1006 504.705 -57.6204 503.545C-44.0171 492.738 -32.2221 478.617 -23.0948 462.27C-21.0007 458.516 -19.0756 454.63 -17.3045 450.688L-15.9312 447.521C-12.5203 439.488 -9.69056 431.124 -7.23465 422.573C-7.0386 422.766 -6.83031 422.943 -6.622 423.12C-6.58262 423.165 -6.51784 423.209 -6.47846 423.254C-6.21764 423.49 -5.94457 423.711 -5.6715 423.932C-5.64524 423.962 -5.61984 423.961 -5.59359 423.991C-5.33364 424.197 -5.07369 424.402 -4.81374 424.608C-4.76209 424.637 -4.73584 424.667 -4.69646 424.712C-4.42424 424.902 -4.16429 425.108 -3.89208 425.297C-3.84043 425.326 -3.77567 425.37 -3.73629 425.415C-3.46407 425.605 -3.20498 425.78 -2.93363 425.939C-2.89511 425.953 -2.85572 425.997 -2.81721 426.011C-2.54585 426.17 -2.29989 426.33 -2.02854 426.489C-1.99002 426.503 -1.9769 426.518 -1.95065 426.548C-1.67929 426.707 -1.39568 426.85 -1.13746 426.994C-1.0858 427.023 -1.03416 427.052 -0.98252 427.08C-0.712032 427.209 -0.453806 427.353 -0.171052 427.465C-0.119407 427.493 -0.0808797 427.507 -0.0292344 427.536C0.241258 427.664 0.523999 427.776 0.794496 427.904L0.807619 427.919C1.09037 428.031 1.37313 428.144 1.65588 428.256C1.70753 428.284 1.7583 428.282 1.80995 428.311C2.07958 428.408 2.34921 428.505 2.6311 428.587C2.69501 428.599 2.74665 428.628 2.79744 428.626C3.07933 428.707 3.34895 428.805 3.61771 428.871C3.64311 428.87 3.68163 428.884 3.69475 428.899C3.96352 428.965 4.22001 429.047 4.47565 429.098C4.51417 429.112 4.56496 429.11 4.60348 429.124C4.87224 429.19 5.15327 429.241 5.40889 429.292C5.47281 429.305 5.52359 429.303 5.58749 429.315C5.8554 429.351 6.12416 429.417 6.39206 429.452C6.43059 429.466 6.48137 429.464 6.51988 429.478C6.78778 429.513 7.0303 429.55 7.28507 429.57C7.31047 429.569 7.34898 429.583 7.37437 429.582C7.64228 429.617 7.90931 429.622 8.18948 429.641C8.24026 429.639 8.30417 429.652 8.35494 429.65C8.62199 429.654 8.87677 429.675 9.1438 429.679C9.19458 429.677 9.24536 429.675 9.29614 429.673C9.56318 429.677 9.83023 429.682 10.0973 429.686L10.1227 429.685C10.3897 429.689 10.669 429.678 10.9352 429.651C10.986 429.649 11.0367 429.647 11.0875 429.645C11.3414 429.634 11.6076 429.608 11.8615 429.597C11.9123 429.595 11.9631 429.593 12.0261 429.575C12.2923 429.549 12.5585 429.522 12.8115 429.481C12.8369 429.48 12.8623 429.479 12.8877 429.478C13.1285 429.452 13.3815 429.411 13.6346 429.369C13.6854 429.367 13.723 429.35 13.7738 429.348C14.0269 429.307 14.2799 429.265 14.5198 429.209C14.6564 429.095 14.7072 429.093 14.7703 429.075Z" fill="#3D4775"/>
<path d="M36.6208 491.564C36.6208 491.564 -68.7243 622.545 -90.6576 735.248C-98.1036 773.489 -96.8801 803.545 -91.9958 826.562C-81.8259 874.556 -32.8194 888.909 -2.39911 852.816C12.1903 835.507 26.7748 810.092 37.5168 772.81C69.1633 662.947 36.6208 491.564 36.6208 491.564Z" fill="#2F8C91"/>
<path d="M-31.5682 787.076C-29.7295 779.375 -27.884 771.686 -26.0453 763.985C-2.5359 756.692 20.9803 749.412 44.4997 742.111C44.663 741.191 44.8264 740.271 44.973 739.349C21.5269 746.619 -1.91908 753.889 -25.3651 761.159C-23.6252 753.889 -21.8822 746.598 -20.1423 739.327C2.27733 731.922 24.8952 725.714 47.638 720.736C47.7349 719.859 47.8485 718.984 47.9454 718.108C25.3225 723.03 2.84444 729.164 -19.459 736.481C-17.7861 729.487 -16.1133 722.493 -14.4405 715.499C6.98197 709.597 28.3945 703.704 49.8169 697.802C49.8802 696.921 49.9436 696.039 50.0001 695.145C28.7479 700.999 7.47888 706.85 -13.7733 712.703C-12.0241 705.371 -10.2581 698.04 -8.50885 690.708C11.1825 683.13 31.0727 676.517 51.1121 670.914C51.1319 670.036 51.1586 669.169 51.1684 668.301C31.3459 673.831 11.6688 680.339 -7.81624 687.799C-6.00923 680.253 -4.20223 672.706 -2.40207 665.148C15.3458 658.632 33.2652 653.034 51.2996 648.388C51.2996 647.528 51.2828 646.666 51.2827 645.806C33.4819 650.382 15.8023 655.868 -1.71256 662.26C-0.244098 656.115 1.2343 649.962 2.70277 643.818C18.5767 637.154 34.6383 631.358 50.8411 626.453C50.8075 625.589 50.7807 624.735 50.7471 623.871C34.8078 628.677 19.0227 634.346 3.41154 640.859C5.20238 633.362 6.99324 625.866 8.78408 618.37C21.9819 611.129 35.6688 605.607 49.638 601.869C49.5845 601.022 49.531 600.175 49.4707 599.317C35.8253 602.956 22.4577 608.293 9.52764 615.236C10.1407 612.687 10.747 610.126 11.3601 607.576C11.6341 607.236 11.7826 606.76 11.6794 606.245C12.1198 604.391 12.5671 602.549 13.0075 600.695C24.2332 593.503 36.255 588.788 48.5727 586.741C48.5025 585.892 48.4391 585.054 48.3688 584.205C36.4257 586.214 24.7624 590.654 13.8026 597.388C15.1499 591.767 16.4873 586.155 17.8346 580.533C27.3345 575.529 37.0487 571.386 46.9407 568.119C46.8536 567.267 46.7734 566.427 46.6864 565.576C37.138 568.725 27.75 572.695 18.572 577.44C19.8168 572.217 21.0784 566.997 22.3233 561.773C28.9633 559.656 35.5865 557.535 42.2265 555.417C43.3176 555.063 44.4322 554.724 45.5232 554.37C45.4262 553.528 45.3361 552.697 45.246 551.866C43.6144 552.392 41.989 552.876 40.3773 553.384C34.5848 555.228 28.7991 557.083 23.0066 558.927C24.0632 554.503 25.1167 550.1 26.1733 545.676C31.8639 542.564 37.6415 539.731 43.4998 537.217C43.396 536.363 43.2822 535.518 43.1753 534.684C37.6935 537.032 32.275 539.644 26.9367 542.523C28.1723 537.363 29.3978 532.211 30.6402 527.062C34.2196 525.273 37.8381 523.681 41.5095 522.309C41.3888 521.452 41.2652 520.616 41.1483 519.792C37.8572 521.03 34.5848 522.431 31.3645 523.999C32.1049 520.885 32.8522 517.783 33.5927 514.669C35.7001 513.6 37.8008 512.52 39.8983 511.46C39.7709 510.592 39.6373 509.765 39.5105 508.949C37.7826 509.832 36.0547 510.715 34.3368 511.588C35.4444 506.938 36.5588 502.3 37.6763 497.642C36.9969 493.696 36.5867 491.564 36.5867 491.564C36.5867 491.564 35.3025 493.151 33.0032 496.133C31.7645 501.314 30.5259 506.496 29.2873 511.677C28.5117 509.235 27.5833 506.896 26.5387 504.646C26.0442 505.313 25.5397 505.99 25.0154 506.685C26.3191 509.611 27.4171 512.708 28.2661 515.979C27.4076 519.595 26.5324 523.208 25.6739 526.824C24.1644 522.062 22.3263 517.546 20.1594 513.278C19.6649 513.945 19.1772 514.625 18.6696 515.322C20.9265 519.848 22.8188 524.69 24.3053 529.778C24.3997 530.122 24.5831 530.33 24.7956 530.458C23.1991 537.113 21.6126 543.76 20.0162 550.415C16.9464 542.549 13.6374 534.848 10.1159 527.305C9.62506 528.005 9.12432 528.714 8.6304 529.435C12.3825 537.501 15.8823 545.762 19.1161 554.194C17.6893 560.175 16.2525 566.165 14.8257 572.146C10.4664 561.429 5.87108 550.857 1.07009 540.456C0.576176 541.176 0.0990347 541.899 -0.397983 542.641C4.61988 553.543 9.40539 564.621 13.9417 575.874C12.1925 583.207 10.4333 590.548 8.6841 597.881C3.30628 583.422 -2.53691 569.263 -8.82183 555.419C-9.30207 556.163 -9.78232 556.907 -10.2725 557.66C-3.77381 572.025 2.24338 586.741 7.76849 601.764C6.61621 606.598 5.45398 611.441 4.3017 616.275C-3.79506 601.868 -11.8918 587.461 -19.9886 573.054C-20.4421 573.791 -20.8956 574.528 -21.3591 575.275C-13.074 590.029 -4.77906 604.774 3.51281 619.54C1.26849 628.92 -0.975824 638.3 -3.22013 647.68C-10.9227 627.198 -19.556 607.317 -29.0821 588.128C-29.5418 588.907 -29.9916 589.677 -30.4513 590.456C-20.732 610.131 -11.9421 630.513 -4.13947 651.53C-6.18873 660.123 -8.24483 668.703 -10.304 677.305C-21.5414 656.422 -32.7855 635.527 -44.0228 614.644C-44.4521 615.449 -44.8883 616.242 -45.3076 617.038C-33.9025 638.233 -22.4974 659.428 -11.0824 680.614C-11.8644 683.891 -12.6465 687.168 -13.4354 690.434C-14.3833 694.418 -15.348 698.4 -16.2959 702.384C-29.0028 679.854 -41.7165 657.313 -54.4233 634.783C-54.829 635.603 -55.2446 636.431 -55.6435 637.261C-42.7862 660.047 -29.9321 682.854 -17.0749 705.64C-18.5433 711.784 -20.0118 717.929 -21.4802 724.073C-36.3673 702.697 -51.2543 681.32 -66.1513 659.953C-66.5166 660.789 -66.8819 661.625 -67.2403 662.472C-52.3092 683.898 -37.388 705.332 -22.4568 726.758C-22.3717 726.877 -22.2803 726.954 -22.189 727.032C-24.2929 735.818 -26.3869 744.594 -28.4908 753.38C-44.0652 729.659 -59.6296 705.93 -75.204 682.209C-75.5351 683.103 -75.8762 684.006 -76.2073 684.9C-60.5509 708.761 -44.8945 732.621 -29.2282 756.473C-30.8054 763.057 -32.3726 769.632 -33.9497 776.216C-51.1705 755.471 -68.4079 734.723 -85.6287 713.978C-85.8889 714.914 -86.1393 715.842 -86.3828 716.781C-69.1316 737.552 -51.8836 758.344 -34.6324 779.115C-36.3152 786.118 -37.9812 793.124 -39.664 800.127C-58.0731 782.565 -75.6 763.694 -92.1732 743.611C-92.3484 744.666 -92.5204 745.702 -92.6757 746.739C-76.141 766.679 -58.6626 785.415 -40.3019 802.843C-43.0152 814.21 -45.7453 825.575 -48.4586 836.942C-64.98 821.271 -80.8199 804.6 -95.9571 787.017C-95.9558 788.27 -95.9414 789.492 -95.9202 790.727C-81.0763 807.862 -65.5496 824.103 -49.391 839.39C-49.2929 839.479 -49.1916 839.547 -49.0773 839.586C-50.2134 844.369 -51.3663 849.15 -52.5024 853.933C-66.168 842.169 -79.8236 830.395 -93.4824 818.642C-93.2797 819.925 -93.0572 821.19 -92.8316 822.434C-79.5991 833.825 -66.3666 845.216 -53.1441 856.616C-54.2809 861.346 -55.4108 866.088 -56.5376 870.809C-54.9942 871.331 -53.4116 871.764 -51.8266 872.122C-51.5104 870.812 -51.1942 869.502 -50.8781 868.191C-35.9608 864.481 -21.0436 860.771 -6.13623 857.07C-5.07693 856.011 -4.04186 854.885 -3.01735 853.714C-18.7529 857.618 -34.4816 861.533 -50.2271 865.446C-49.2083 861.218 -48.2064 856.988 -47.1876 852.76C-28.5959 847.944 -10.0011 843.107 8.59065 838.291C9.26536 837.279 9.93633 836.235 10.6005 835.18C-8.43862 840.119 -27.4876 845.066 -46.5336 849.994C-44.9595 843.43 -43.3954 836.876 -41.8213 830.313C-20.6697 825.304 0.475049 820.283 21.6266 815.274C22.0876 814.314 22.5486 813.355 23.0058 812.364C1.61378 817.432 -19.7714 822.511 -41.1535 827.57C-39.7907 821.845 -38.411 816.122 -37.0482 810.397C-37.0066 810.234 -36.9749 810.079 -36.9333 809.916C-14.5758 803.212 7.97256 797.928 30.6347 794.062C30.9757 793.159 31.3099 792.244 31.6373 791.317C8.86773 795.156 -13.7912 800.434 -36.2562 807.111C-36.0773 806.374 -35.8984 805.637 -35.7294 804.909C-35.6642 804.76 -35.6226 804.597 -35.6176 804.449C-34.4715 799.656 -33.3255 794.864 -32.1695 790.062C-8.56635 780.768 15.3109 772.853 39.395 766.306C39.6286 765.376 39.8789 764.448 40.1057 763.506C15.9165 769.952 -7.95762 777.846 -31.5682 787.076Z" fill="#286F7F"/>
<path d="M-3.48422 650.874C-19.1279 647.942 -39.3393 659.226 -46.5047 663.655C-40.5941 653.206 -35.2586 642.591 -30.5254 631.813C21.8274 628.917 69.9034 595.723 69.9034 595.723C69.9034 595.723 58.2795 600.632 25.4834 605.54C-3.46505 609.877 -22.8664 624.02 -29.5672 629.608C-25.1948 619.451 -21.3578 609.186 -18.0668 598.821C-16.8741 595.062 -15.758 591.288 -14.7125 587.511C-0.792557 577.83 23.5584 584.45 46.3666 579.046C63.5322 574.986 79.1822 543.556 79.1822 543.556C79.1822 543.556 62.8868 569.89 36.1426 566.647C14.782 564.056 -6.79572 580.51 -14.6394 587.24C-11.3289 575.213 -8.7493 563.076 -6.92074 550.877C-2.13219 549.83 13.8505 546.141 29.5019 540.505C47.9396 533.855 87.1461 509.693 87.1461 509.693C87.1461 509.693 69.936 510.368 46.3292 517.34C27.2579 522.981 0.0398104 544.379 -6.7666 549.887C-5.28196 539.743 -4.30352 529.556 -3.84191 519.332C0.871957 517.624 16.8094 511.756 33.1589 504.638C52.6366 496.152 96.6784 457.998 96.6784 457.998C96.6784 457.998 82.2136 464.264 51.1713 477.295C24.4865 488.506 1.98665 511.862 -3.80609 518.203C-3.42211 508.985 -3.45141 499.745 -3.90459 490.489C-1.16072 483.864 4.58376 463.963 -1.69587 423.095C-9.07647 375.032 -14.5073 360.327 -14.5073 360.327C-14.5073 360.327 -26.0768 448.305 -6.70892 490.037C-6.28236 498.427 -6.22481 506.645 -6.46561 514.695C-11.4512 506.871 -29.9107 479.128 -54.6393 457.067C-83.7215 431.132 -93.1921 424.69 -93.1921 424.69C-93.1921 424.69 -53.6772 479.855 -34.6104 495.406C-19.5643 507.669 -9.92083 513.908 -6.51757 516.005C-6.91207 526.998 -7.90807 537.673 -9.38759 547.984C-14.3437 540.411 -33.9847 512.205 -56.8104 502.754C-83.2765 491.793 -96.7028 469.19 -96.7028 469.19C-96.7028 469.19 -88.3486 494.563 -55.7586 515.761C-28.7248 533.349 -13.7994 545.22 -9.49367 548.77C-11.4767 562.298 -14.2931 575.21 -17.7436 587.452C-21.5279 580.383 -34.1127 559.19 -54.7791 546.523C-79.8611 531.145 -104.503 502.737 -104.503 502.737C-104.503 502.737 -80.9226 547.098 -52.0165 569.603C-31.1699 585.834 -21.9416 589.163 -18.4054 589.759C-22.4182 603.662 -27.2231 616.699 -32.437 628.793C-35.0059 622.232 -44.4571 601.078 -66.2423 580.989C-92.4473 556.816 -112.76 538.179 -112.76 538.179C-112.76 538.179 -63.8789 616.322 -33.0751 630.285C-38.325 642.268 -43.9733 653.301 -49.7017 663.319C-51.4016 657.299 -57.7196 639.346 -75.2708 625.592C-96.6603 608.833 -102.99 597.549 -109.805 581.279C-109.805 581.279 -100.401 617.638 -85.6985 631.09C-68.4991 646.819 -54.9483 653.364 -49.913 663.685C-53.7407 670.375 -57.5991 676.594 -61.3635 682.34C-91.6749 728.462 -123.746 754.638 -124.069 754.911C-124.709 755.436 -124.894 756.481 -124.484 757.27C-124.427 757.366 -124.37 757.463 -124.302 757.552C-123.851 758.092 -123.137 758.196 -122.569 757.755C-122.241 757.496 -89.8627 731.075 -59.2703 684.556C-55.1111 678.232 -51.1824 671.83 -47.4676 665.353C-40.9394 665.269 -17.1033 665.038 -1.42884 666.148C16.8734 667.442 51.7545 633.269 51.7545 633.269C51.7545 633.269 15.8671 654.505 -3.48422 650.874Z" fill="#E5674E"/>
<path d="M167.413 175.922C167.413 175.922 137.125 -23.3992 63.2806 -101.668C38.2145 -128.228 13.6004 -139.498 -7.98876 -142.772C-53.0167 -149.621 -98.4488 -89.2943 -91.0721 -32.4928C-87.5347 -5.24202 -77.5926 25.4892 -55.5805 56.1199C9.25043 146.333 167.413 175.922 167.413 175.922Z" fill="#BAE3DD"/>
<path d="M-18.7943 -43.6752C-13.99 -37.8563 -9.18488 -32.0647 -4.38054 -26.2458C-14.9675 8.78287 -25.5657 43.8278 -36.1527 78.8564C-35.5437 79.4762 -34.9234 80.0797 -34.3032 80.6832C-23.7403 45.742 -13.1774 10.8008 -2.62582 -24.1242C1.9179 -18.6391 6.46084 -13.1265 11.0046 -7.64142C1.25743 25.9633 -9.55199 59.3138 -21.4423 92.3055C-20.8198 92.8267 -20.1972 93.3479 -19.585 93.8579C-7.75413 61.0574 3.04986 27.899 12.7803 -5.49748C17.1465 -0.229514 21.5119 5.06588 25.8782 10.3339C15.648 41.9267 5.40652 73.5357 -4.82368 105.129C-4.1673 105.601 -3.5214 106.062 -2.85374 106.518C7.30499 75.1602 17.4637 43.8023 27.6224 12.4443C32.1968 17.9903 36.772 23.5089 41.3464 29.0549C33.6359 59.0331 25.0333 88.8532 15.54 118.46C16.2092 118.862 16.8889 119.274 17.5581 119.675C26.9663 90.4014 35.5056 60.9096 43.1633 31.2709C47.874 36.962 52.5952 42.6643 57.2947 48.3716C50.1041 75.2571 42.0648 101.974 33.1896 128.452C33.8709 128.81 34.5626 129.178 35.2439 129.536C44.0114 103.424 51.9649 77.0676 59.0906 50.5653C62.9236 55.2093 66.7678 59.837 70.6008 64.481C64.8307 88.8931 58.233 113.159 50.8405 137.258C51.5443 137.583 52.2481 137.908 52.9406 138.249C60.2239 114.571 66.735 90.6933 72.4386 66.7193C77.1179 72.3769 81.7972 78.0345 86.4764 83.6921C83.0172 104.713 77.8641 125.655 71.112 146.224C71.8166 146.522 72.5324 146.803 73.237 147.1C79.8566 127.012 84.9192 106.595 88.4296 86.0532C90.0278 87.98 91.6155 89.8956 93.2025 91.8387C93.2852 92.3506 93.5539 92.7779 94.0383 92.8411C95.1871 94.2332 96.3465 95.6365 97.4953 97.0285C95.3654 115.366 90.7294 133.693 83.7809 151.283C84.4968 151.564 85.2134 151.818 85.9292 152.099C92.647 135.027 97.2553 117.292 99.5526 99.5286C103.062 103.772 106.561 108.004 110.07 112.247C107.418 127.287 103.926 142.252 99.6375 157.077C100.376 157.326 101.093 157.58 101.82 157.845C105.974 143.528 109.365 129.104 112.003 114.586C115.261 118.534 118.52 122.482 121.779 126.402C118.841 136.304 115.901 146.234 112.963 156.136C112.484 157.775 111.984 159.419 111.505 161.057C112.233 161.295 112.961 161.533 113.678 161.759C114.396 159.328 115.145 156.904 115.861 154.501C118.43 145.844 120.987 137.203 123.555 128.546C126.312 131.876 129.07 135.206 131.827 138.536C130.339 147.607 128.537 156.656 126.466 165.673C127.216 165.905 127.966 166.11 128.695 166.32C130.653 157.861 132.351 149.409 133.791 140.908C137.008 144.812 140.225 148.688 143.442 152.591C142.375 158.211 141.103 163.81 139.649 169.384C140.399 169.589 141.15 169.794 141.879 169.977C143.199 164.966 144.346 159.941 145.353 154.907C147.296 157.257 149.238 159.607 151.181 161.957C150.569 165.262 149.945 168.584 149.343 171.9C150.115 172.1 150.867 172.278 151.596 172.46C152.095 169.741 152.615 167.016 153.113 164.296C156.017 167.81 158.91 171.312 161.814 174.826C165.433 175.569 167.411 175.921 167.411 175.921C167.411 175.921 167.047 173.499 166.286 169.1C163.059 165.185 159.821 161.287 156.583 157.362C159.057 157.366 161.549 157.106 164.047 156.655C163.868 155.702 163.691 154.722 163.482 153.709C160.259 154.235 157.046 154.378 153.877 154.115C151.622 151.375 149.365 148.663 147.109 145.924C151.917 145.924 156.783 145.365 161.644 144.262C161.444 143.315 161.255 142.351 161.067 141.36C155.925 142.474 150.78 142.962 145.719 142.776C145.384 142.76 145.077 142.913 144.834 143.134C140.676 138.117 136.53 133.083 132.373 128.066C140.724 127.287 149.108 126.119 157.535 124.572C157.325 123.613 157.115 122.627 156.884 121.646C147.893 123.271 138.946 124.462 130.012 125.215C126.273 120.699 122.534 116.183 118.816 111.661C130.326 110.344 141.868 108.664 153.431 106.639C153.2 105.658 152.967 104.704 152.726 103.712C140.62 105.837 128.536 107.563 116.486 108.871C111.912 103.325 107.326 97.7954 102.762 92.2605C117.928 91.1865 133.191 89.3402 148.518 86.7702C148.264 85.7943 148.011 84.8183 147.758 83.8423C131.878 86.4741 116.075 88.3112 100.35 89.3262C97.3316 85.6623 94.3127 82.0259 91.3051 78.3732C108.326 73.5926 125.336 68.8008 142.357 64.0202C142.092 63.0879 141.827 62.1556 141.551 61.2122C124.116 66.1174 106.692 71.0064 89.268 75.9229C83.4189 68.8508 77.5593 61.7677 71.7102 54.6957C93.2435 53.0775 114.961 49.9035 136.765 45.2378C136.478 44.2832 136.171 43.3337 135.874 42.368C113.561 47.0853 91.347 50.2398 69.2972 51.7887C63.9394 45.2961 58.5704 38.8197 53.2231 32.3382C77.5454 26.0852 101.868 19.8323 126.201 13.5631C125.86 12.635 125.53 11.7181 125.189 10.79C100.507 17.141 75.8144 23.5084 51.1328 29.8595C49.0965 27.3817 47.0489 24.9202 45.0126 22.4424C42.5269 19.43 40.0413 16.4175 37.5548 13.4325C64.2151 5.88018 90.8536 -1.66701 117.514 -9.21933C117.14 -10.126 116.776 -11.0216 116.402 -11.9283C89.448 -4.29317 62.4938 3.34195 35.5178 10.9822C31.6848 6.33818 27.8405 1.71045 24.0076 -2.93355C51.2518 -13.9343 78.5177 -24.9401 105.762 -35.9409C105.354 -36.7987 104.946 -37.6566 104.527 -38.4982C77.2066 -27.4659 49.8859 -16.4335 22.5651 -5.40115C22.4121 -5.3379 22.28 -5.25232 22.1689 -5.14443C16.6853 -11.771 11.2017 -18.3976 5.72936 -25.0405C35.3153 -35.9516 64.8907 -46.874 94.4767 -57.7852C94.0036 -58.6277 93.5306 -59.4702 93.0463 -60.2965C63.3073 -49.322 33.5466 -38.3425 3.80763 -27.368C-0.297218 -32.3296 -4.40205 -37.2911 -8.5174 -42.2639C19.8724 -56.7089 48.2405 -71.1488 76.6303 -85.5938C76.0792 -86.3498 75.5064 -87.1008 74.944 -87.8405C46.5211 -73.3741 18.0983 -58.9077 -10.3133 -44.4576C-14.69 -49.7367 -19.0555 -55.0321 -23.4322 -60.3112C3.24881 -77.7334 30.3659 -93.3915 57.7773 -107.238C57.0731 -107.931 56.3577 -108.608 55.6527 -109.273C28.3816 -95.4182 1.42649 -79.7574 -25.124 -62.3659C-32.2268 -70.9416 -39.3078 -79.5224 -46.4106 -88.0981C-22.5345 -103.757 1.66052 -118.087 26.0873 -131.068C25.098 -131.612 24.1185 -132.118 23.1389 -132.623C-0.719973 -119.857 -24.3568 -105.781 -47.6837 -90.442C-47.827 -90.3401 -47.9381 -90.2322 -48.0605 -90.1081C-51.0479 -93.711 -54.0242 -97.3303 -57.0116 -100.933C-38.2098 -114.417 -19.4087 -127.874 -0.606904 -141.358C-1.76589 -141.63 -2.90392 -141.88 -4.06449 -142.098C-22.2705 -129.054 -40.4765 -116.01 -58.6937 -102.949C-61.6497 -106.519 -64.6057 -110.088 -67.5504 -113.674C-69.0514 -111.795 -70.4894 -109.849 -71.8645 -107.836C-71.0392 -106.844 -70.2243 -105.864 -69.4103 -104.857C-76.8573 -83.0206 -84.2932 -61.2007 -91.7402 -39.3646C-91.632 -37.4688 -91.4697 -35.5721 -91.2527 -33.702C-83.4047 -56.7225 -75.5455 -79.7592 -67.6975 -102.78C-65.0658 -99.5836 -62.4124 -96.3926 -59.7806 -93.1965C-68.8951 -65.8994 -78.0095 -38.6022 -87.1457 -11.3C-86.8059 -9.94924 -86.4557 -8.58731 -86.0837 -7.2305C-76.7451 -35.1935 -67.4065 -63.1565 -58.0574 -91.1084C-53.963 -86.158 -49.8687 -81.2075 -45.7743 -76.2571C-56.5234 -45.4143 -67.262 -14.5603 -78.011 16.2825C-77.5757 17.311 -77.1298 18.3507 -76.6735 19.4015C-65.8063 -11.7961 -54.9392 -42.9937 -44.072 -74.1913C-40.4996 -69.8812 -36.928 -65.5436 -33.3557 -61.2334C-33.2508 -61.1218 -33.1572 -60.9939 -33.0636 -60.8661C-43.318 -27.6598 -54.816 5.21232 -67.5216 37.6191C-67.0381 38.4727 -66.5433 39.3101 -66.0598 40.1638C-53.264 7.6269 -41.6646 -25.3917 -31.3306 -58.7394C-30.8708 -58.1935 -30.4117 -57.6202 -29.9519 -57.0743C-29.8808 -56.9139 -29.7759 -56.8023 -29.659 -56.7345C-26.6611 -53.1203 -23.6744 -49.4899 -20.6764 -45.8758C-29.7467 -9.85502 -40.0855 25.9464 -51.6792 61.4299C-51.1056 62.1534 -50.532 62.8768 -49.9583 63.6003C-38.2783 28.1238 -27.9073 -7.67159 -18.7943 -43.6752Z" fill="#97C9CE"/>
<path d="M-41.7196 62.9701C-56.8667 70.858 -79.4032 65.7325 -87.4733 63.4916C-79.4625 72.2272 -72.0122 81.3379 -65.1369 90.7783C-11.9362 77.3149 42.936 95.8911 42.936 95.8911C42.936 95.8911 30.289 94.5544 -3.64304 99.8545C-33.5875 104.534 -55.8897 96.2728 -63.7181 92.6977C-57.3192 101.622 -51.4391 110.839 -46.0764 120.326C-44.1312 123.755 -42.279 127.24 -40.4811 130.74C-24.5918 136.204 -1.39746 121.834 22.5703 120.161C40.6301 118.91 62.5476 145.863 62.5476 145.863C62.5476 145.863 40.9756 124.265 14.7341 135.935C-6.21983 145.268 -31.1672 135.342 -40.3742 130.972C-34.6742 142.123 -29.6933 153.631 -25.4282 165.452C-20.4069 165.016 -3.6226 163.729 13.2343 164.559C33.0808 165.533 77.2439 177.745 77.2439 177.745C77.2439 177.745 59.812 182.472 34.7032 182.785C14.4263 183.058 -17.1655 169.868 -25.0916 166.413C-21.6003 176.236 -18.6037 186.265 -16.1196 196.499C-11.0432 196.75 6.12407 197.703 23.9685 199.81C45.2422 202.353 97.0321 227.254 97.0321 227.254C97.0321 227.254 81.2616 225.428 47.4892 221.939C18.4552 218.947 -8.75973 202.304 -15.8346 197.673C-13.6309 206.909 -11.8467 216.294 -10.4645 225.831C-6.39366 231.7 3.31144 250.074 5.05359 293.521C7.11283 344.604 4.57477 361.227 4.57477 361.227C4.57477 361.227 -24.4261 275.587 -13.1934 227.188C-14.4119 218.549 -15.97 210.178 -17.8166 202.103C-21.279 211.613 -34.36 245.546 -54.861 275.664C-78.9728 311.102 -87.2095 320.593 -87.2095 320.593C-87.2095 320.593 -58.3836 252.242 -42.2879 230.472C-29.5908 213.32 -21.1319 203.942 -18.1063 200.752C-20.6726 189.718 -23.7758 179.215 -27.307 169.213C-30.801 178.434 -44.9586 213.232 -66.0401 229.973C-90.4811 249.384 -99.5045 276.532 -99.5045 276.532C-99.5045 276.532 -96.1245 248.167 -67.5503 216.446C-43.853 190.12 -31.2061 173.402 -27.5701 168.458C-32.237 155.361 -37.6092 143.149 -43.4898 131.802C-45.9072 140.157 -54.3587 165.592 -72.6345 184.939C-94.8046 208.409 -113.974 244.94 -113.974 244.94C-113.974 244.94 -99.0327 192.528 -74.4227 160.639C-56.6722 137.63 -48.0554 131.367 -44.6251 129.651C-51.4049 116.795 -58.8023 105.077 -66.4411 94.4509C-67.7275 101.925 -73.0488 126.334 -90.9903 153.561C-112.557 186.303 -129.288 211.581 -129.288 211.581C-129.288 211.581 -95.5881 116.969 -67.3742 93.1581C-75.0035 82.6431 -82.8743 73.2207 -90.6103 64.846C-91.1419 71.4844 -93.9309 91.7021 -108.859 111.146C-127.052 134.852 -131.18 148.283 -134.828 166.931C-134.828 166.931 -132.561 127.083 -120.438 108.834C-106.256 87.481 -93.9378 76.5898 -90.9077 64.5484C-96.0656 58.9726 -101.17 53.8641 -106.113 49.2134C-145.683 11.8945 -183.082 -4.59531 -183.442 -4.76826C-184.199 -5.09641 -184.585 -6.107 -184.32 -7.0431C-184.292 -7.17175 -184.231 -7.2746 -184.188 -7.37947C-183.835 -8.06392 -183.135 -8.40121 -182.481 -8.12869C-182.102 -7.97551 -144.343 8.68725 -104.42 46.288C-98.9963 51.3891 -93.7804 56.6641 -88.7696 62.0694C-82.1971 60.1195 -58.1857 52.872 -42.6439 46.8303C-24.5065 39.7896 17.3058 63.5053 17.3058 63.5053C17.3058 63.5053 -22.9722 53.2316 -41.7196 62.9701Z" fill="#FCF4DF"/>
<path d="M84.8 660.917C84.8 660.917 -54.9399 732.889 -112.983 826.644C-132.681 858.454 -141.758 886.733 -145.137 910.217C-152.194 959.18 -112.698 995.113 -72.9316 975.925C-53.8605 966.724 -32.0466 950.045 -9.69032 920.647C56.183 834.009 84.8 660.917 84.8 660.917Z" fill="#1A4143"/>
<path d="M-77.0735 901.893C-72.7989 895.642 -68.5221 889.405 -64.2475 883.155C-40.492 887.322 -16.7343 891.503 7.03327 895.666C7.49286 894.894 7.95243 894.121 8.39771 893.339C-15.2929 889.18 -38.9835 885.022 -62.674 880.864C-58.6348 874.964 -54.5858 869.047 -50.5466 863.148C-27.7394 866.706 -5.15865 871.46 17.1187 877.406C17.5035 876.642 17.9027 875.889 18.2876 875.125C-3.86222 869.183 -26.2913 864.425 -48.9633 860.839C-45.0785 855.163 -41.1937 849.488 -37.3089 843.812C-15.914 848.295 5.46872 852.781 26.8636 857.264C27.2198 856.48 27.576 855.696 27.93 854.898C6.70565 850.45 -14.533 845.991 -35.7574 841.543C-31.6886 835.59 -27.6056 829.648 -23.5368 823.696C-3.1413 825.831 17.1074 828.947 37.149 833.064C37.4645 832.264 37.7822 831.477 38.0856 830.68C18.2651 826.596 -1.75493 823.481 -21.924 821.334C-17.7304 815.211 -13.5368 809.087 -9.34546 802.95C8.93063 805.164 27.051 808.304 44.9529 812.375C45.2443 811.582 45.5213 810.779 45.8126 809.986C28.146 805.959 10.2807 802.826 -7.74249 800.606C-4.33069 795.62 -0.906808 790.63 2.50498 785.643C19.1346 786.852 35.6404 788.948 51.9716 791.932C52.2342 791.119 52.4992 790.32 52.7618 789.507C36.7023 786.554 20.4902 784.469 4.14958 783.242C8.3114 777.158 12.4732 771.074 16.635 764.99C31.0378 764.426 45.3006 765.675 59.2143 768.7C59.4528 767.894 59.6914 767.089 59.9276 766.269C46.3406 763.303 32.4296 762.031 18.3705 762.444C19.7895 760.377 21.2063 758.296 22.6254 756.228C22.9888 756.041 23.2846 755.671 23.3656 755.149C24.3926 753.643 25.4219 752.151 26.4489 750.645C39.0495 749.213 51.5312 750.435 63.3769 754.254C63.6011 753.438 63.8276 752.636 64.0518 751.82C52.5582 748.14 40.4941 746.831 28.2895 747.963C31.4144 743.403 34.5273 738.846 37.6522 734.286C47.9487 734.073 58.1475 734.752 68.2104 736.322C68.4202 735.497 68.6324 734.685 68.8422 733.859C59.1302 732.339 49.2853 731.651 39.368 731.775C42.2651 727.534 45.1766 723.304 48.0738 719.063C54.8031 720.187 61.518 721.3 68.2473 722.423C69.3549 722.602 70.4791 722.806 71.5867 722.985C71.7845 722.163 71.9845 721.355 72.1846 720.546C70.5292 720.275 68.8935 719.969 67.2623 719.69C61.3932 718.707 55.5262 717.738 49.6571 716.755C52.113 713.164 54.5591 709.591 57.015 706C63.2216 705.767 69.4125 705.831 75.5681 706.227C75.7636 705.391 75.9471 704.559 76.1328 703.74C70.3742 703.366 64.5833 703.264 58.7746 703.446C61.6422 699.259 64.4978 695.075 67.3676 690.902C71.2145 690.91 75.03 691.119 78.8187 691.555C78.9999 690.708 79.1713 689.88 79.3449 689.065C75.9456 688.683 72.5082 688.458 69.0615 688.412C70.7871 685.883 72.5149 683.369 74.2405 680.84C76.5107 680.831 78.7787 680.807 81.0369 680.802C81.2159 679.942 81.3751 679.117 81.5367 678.306C79.6733 678.32 77.8098 678.333 75.9584 678.343C78.537 674.568 81.1178 670.806 83.7084 667.027C84.4306 663.073 84.7819 660.916 84.7819 660.916C84.7819 660.916 83.0813 661.785 79.989 663.47C77.1116 667.675 74.2341 671.881 71.3566 676.086C71.4823 673.473 71.4344 670.886 71.2514 668.327C70.5774 668.713 69.8914 669.103 69.1812 669.501C69.3696 672.805 69.3142 676.17 68.9741 679.58C66.9715 682.517 64.9546 685.444 62.952 688.381C63.1994 683.289 63.0655 678.273 62.5504 673.332C61.8765 673.719 61.2047 674.119 60.5088 674.527C61.0182 679.748 61.0903 685.09 60.7117 690.472C60.6809 690.832 60.7762 691.109 60.9252 691.326C57.2243 696.725 53.5355 702.12 49.8346 707.518C49.7213 698.841 49.3355 690.205 48.7035 681.617C48.0219 682.035 47.3283 682.457 46.6369 682.892C47.3002 692.07 47.669 701.311 47.739 710.587C44.4202 715.442 41.0894 720.301 37.7707 725.156C37.456 713.252 36.8786 701.372 36.0572 689.554C35.3658 689.99 34.6887 690.436 33.9875 690.889C34.8357 703.269 35.4136 715.704 35.7068 728.185C31.6381 734.137 27.5573 740.094 23.4885 746.046C23.5201 730.218 23.0286 714.452 22.0304 698.771C21.3435 699.235 20.6566 699.699 19.9576 700.166C20.9727 716.426 21.4329 732.787 21.3436 749.203C18.6622 753.128 15.9686 757.056 13.2871 760.98C10.8395 743.941 8.39185 726.901 5.9442 709.862C5.28366 710.332 4.62314 710.802 3.95054 711.276C6.45098 728.723 8.96354 746.166 11.4662 763.627C6.25545 771.238 1.04467 778.849 -4.1661 786.461C-4.19813 764.001 -5.27644 741.664 -7.39744 719.552C-8.07766 720.058 -8.7458 720.559 -9.42602 721.065C-7.29472 743.715 -6.24458 766.586 -6.30339 789.586C-11.0707 796.561 -15.8402 803.523 -20.6196 810.502C-23.7158 786.034 -26.8142 761.553 -29.9104 737.085C-30.5718 737.629 -31.2355 738.158 -31.8848 738.698C-28.7425 763.531 -25.6002 788.364 -22.4459 813.194C-24.2646 815.854 -26.0832 818.514 -27.9041 821.16C-30.1126 824.396 -32.3354 827.621 -34.5438 830.856C-38.4124 804.189 -42.2833 777.508 -46.1519 750.841C-46.7968 751.409 -47.4537 751.98 -48.0963 752.561C-44.1785 779.535 -40.2705 806.525 -36.3526 833.499C-39.7644 838.485 -43.1762 843.472 -46.588 848.458C-52.8213 821.845 -59.0546 795.231 -65.3 768.622C-65.9139 769.223 -66.5279 769.825 -67.1397 770.44C-60.8831 797.12 -54.6387 823.803 -48.3821 850.482C-48.3454 850.631 -48.289 850.745 -48.2326 850.859C-53.1149 857.988 -57.9852 865.112 -62.8675 872.24C-68.9285 843.146 -74.9774 814.048 -81.0384 784.954C-81.6412 785.625 -82.2561 786.3 -82.8589 786.971C-76.771 816.233 -70.6832 845.494 -64.5832 874.751C-68.2425 880.093 -71.8897 885.431 -75.5489 890.773C-84.1089 863.66 -92.6831 836.537 -101.243 809.424C-101.796 810.168 -102.337 810.907 -102.876 811.661C-94.2973 838.812 -85.7284 865.98 -77.1497 893.131C-81.0466 898.81 -84.9291 904.5 -88.826 910.179C-99.5407 885.452 -109.013 859.926 -117.211 833.723C-117.727 834.616 -118.234 835.491 -118.726 836.376C-110.514 862.428 -101.04 887.807 -90.3239 912.388C-96.6328 921.615 -102.956 930.832 -109.265 940.059C-118.911 917.95 -127.602 895.235 -135.347 872.004C-135.771 873.16 -136.172 874.294 -136.571 875.443C-128.94 898.124 -120.387 920.298 -110.939 941.884C-110.88 942.012 -110.812 942.122 -110.721 942.211C-113.371 946.096 -116.035 949.971 -118.685 953.857C-127.069 936.674 -135.442 919.487 -143.825 902.319C-144.076 903.596 -144.304 904.866 -144.521 906.118C-136.402 922.756 -128.282 939.393 -120.175 956.034C-122.807 959.87 -125.437 963.72 -128.057 967.552C-126.837 968.749 -125.551 969.881 -124.237 970.946C-123.507 969.884 -122.777 968.822 -122.046 967.76C-107.284 971.25 -92.5209 974.74 -77.7703 978.233C-76.4524 977.747 -75.1336 977.188 -73.8094 976.583C-89.3785 972.893 -104.945 969.216 -120.526 965.53C-118.171 962.102 -115.83 958.664 -113.475 955.237C-95.011 959.409 -76.5371 963.564 -58.0731 967.737C-57.1194 967.116 -56.1582 966.465 -55.1992 965.799C-74.1099 961.532 -93.0326 957.269 -111.946 952.989C-108.296 947.665 -104.659 942.344 -101.009 937.02C-80.1623 942.201 -59.3174 947.367 -38.4703 952.548C-37.7279 951.877 -36.9855 951.206 -36.2354 950.503C-57.3202 945.265 -78.4026 940.041 -99.4753 934.8C-96.3011 930.151 -93.1126 925.512 -89.9384 920.863C-89.8454 920.732 -89.7644 920.604 -89.6713 920.473C-67.1581 924.649 -44.9533 930.223 -23.1261 937.158C-22.5112 936.483 -21.8986 935.794 -21.2882 935.091C-43.2035 928.081 -65.5064 922.45 -88.1077 918.199C-87.696 917.603 -87.2843 917.006 -86.8847 916.413C-86.775 916.305 -86.6819 916.174 -86.6273 916.04C-83.9656 912.151 -81.3038 908.262 -78.6299 904.369C-54.111 906.733 -29.8114 910.496 -5.78826 915.617C-5.26154 914.867 -4.72051 914.128 -4.19604 913.364C-28.28 908.101 -52.5698 904.32 -77.0735 901.893Z" fill="#2F8C91"/>
</g>
<defs>
<clipPath id="clip0">
<rect width="808" height="169" fill="white" transform="translate(0 808) rotate(-90)"/>
</clipPath>
</defs>
</svg>
